<svg width="20" height="20" viewBox="0 0 20 20" fill="none" xmlns="http://www.w3.org/2000/svg">
<g clip-path="url(#clip0)">
<path d="M18.2744 16.8691L16.8427 14.4841C16.1827 13.3833 15.8335 12.1233 15.8335 10.8391V8.74995C15.8335 5.53413 13.216 2.91663 10.0002 2.91663C6.78438 2.91663 4.16688 5.53413 4.16688 8.74995V10.8391C4.16688 12.1233 3.8177 13.3833 3.1577 14.4841L1.72602 16.8691C1.64852 16.9974 1.64684 17.1583 1.7202 17.2883C1.79438 17.4191 1.93352 17.5 2.08352 17.5H17.9168C18.0668 17.5 18.206 17.4192 18.2802 17.2883C18.3535 17.1583 18.3519 16.9974 18.2744 16.8691ZM2.81938 16.6666L3.87188 14.9124C4.6102 13.6824 5.0002 12.2741 5.0002 10.8391V8.74995C5.0002 5.99245 7.2427 3.74995 10.0002 3.74995C12.7577 3.74995 15.0002 5.99245 15.0002 8.74995V10.8391C15.0002 12.2741 15.3902 13.6824 16.1277 14.9124L17.181 16.6666H2.81938Z" fill="#EFF2F1"/>
<path d="M10.0002 0C9.081 0 8.3335 0.7475 8.3335 1.66668V3.33336C8.3335 3.56332 8.52018 3.75 8.75018 3.75C8.98018 3.75 9.16686 3.56332 9.16686 3.33332V1.66668C9.16686 1.20668 9.54018 0.833359 10.0002 0.833359C10.4602 0.833359 10.8335 1.20668 10.8335 1.66668V3.33336C10.8335 3.56332 11.0202 3.75 11.2502 3.75C11.4802 3.75 11.6669 3.56332 11.6669 3.33332V1.66668C11.6669 0.7475 10.9194 0 10.0002 0Z" fill="#EFF2F1"/>
<path d="M11.8032 16.8726C11.6857 16.6742 11.4315 16.6092 11.2324 16.7234C11.0332 16.8401 10.9665 17.0959 11.0832 17.2942C11.1915 17.4784 11.2507 17.6992 11.2507 17.9167C11.2507 18.6059 10.6899 19.1667 10.0007 19.1667C9.3115 19.1667 8.75068 18.6059 8.75068 17.9167C8.75068 17.6992 8.80986 17.4784 8.91818 17.2942C9.034 17.095 8.96736 16.84 8.769 16.7234C8.56818 16.6092 8.31482 16.6742 8.19818 16.8726C8.014 17.1876 7.9165 17.5484 7.9165 17.9167C7.91654 19.0659 8.85068 20.0001 9.99986 20.0001C11.149 20.0001 12.0832 19.0659 12.0849 17.9167C12.0849 17.5484 11.9874 17.1876 11.8032 16.8726Z" fill="#EFF2F1"/>
</g>
<defs>
<clipPath id="clip0">
<rect width="20" height="20" fill="white"/>
</clipPath>
</defs>
</svg>
