<svg width="28" height="28" viewBox="0 0 28 28" fill="none" xmlns="http://www.w3.org/2000/svg">
<path d="M1.20577 22.8781C1.12373 22.9602 1.07764 23.0715 1.07764 23.1875C1.07764 23.3035 1.12373 23.4148 1.20577 23.4968L4.26827 26.5593C4.35032 26.6414 4.46161 26.6875 4.57765 26.6875C4.69369 26.6875 4.80498 26.6414 4.88703 26.5593L6.00834 25.438L9.68928 26.665L9.68938 26.6647C9.7664 26.6906 9.84914 26.6945 9.92824 26.6759C10.0074 26.6573 10.0797 26.6169 10.137 26.5593L13.1995 23.4968C13.2569 23.4394 13.2972 23.3671 13.3158 23.288C13.3344 23.209 13.3306 23.1263 13.3049 23.0493L13.3052 23.0491L12.5788 20.8699L12.5808 20.8718C12.6628 20.9539 12.7741 21 12.8902 21H16.5969L20.6574 26.9345L21.3795 26.4404L17.3717 20.5828L18.2193 19.5233L17.536 18.9767L16.6174 20.125H13.0714L11.8871 18.9408L11.887 18.9406L11.6148 18.6684C11.8857 18.5884 12.132 18.4413 12.3308 18.2406C12.5295 18.0399 12.6743 17.7922 12.7516 17.5205C12.9486 17.6701 13.1763 17.7743 13.4183 17.8255C13.6603 17.8767 13.9107 17.8737 14.1514 17.8167C14.3921 17.7598 14.6173 17.6502 14.8107 17.4959C15.004 17.3416 15.1608 17.1464 15.2698 16.9243C15.3554 17.059 15.4554 17.1839 15.5682 17.2968L15.6433 17.3719L16.262 16.7531L16.1869 16.678C15.9411 16.4317 15.8031 16.0979 15.8031 15.7499C15.8031 15.402 15.9412 15.0682 16.1869 14.8219L16.3371 14.6718C16.643 14.3659 16.8514 13.9761 16.9358 13.5518C17.0202 13.1274 16.9769 12.6876 16.8113 12.2879C16.6457 11.8882 16.3654 11.5465 16.0056 11.3061C15.6459 11.0658 15.2229 10.9375 14.7903 10.9375H14.2027C13.7997 10.937 13.4092 10.7976 13.0969 10.5429C12.7846 10.2882 12.5696 9.9337 12.4881 9.53906L14.8688 9.06292C15.2925 8.97766 15.7308 8.9986 16.1445 9.12385C16.5582 9.24911 16.9344 9.4748 17.2397 9.7808L19.1213 11.6623L19.1213 11.6624C19.3658 11.9055 19.5597 12.1948 19.6916 12.5134C19.8236 12.832 19.8911 13.1736 19.8902 13.5185V16.1875C19.8902 16.2611 19.9087 16.3335 19.9441 16.398C19.9796 16.4625 20.0307 16.5171 20.0928 16.5566L26.6553 20.7327L27.125 19.9945L20.7652 15.9473V13.5185C20.7659 13.0617 20.677 12.6091 20.5036 12.1865L23.2518 13.1025L23.2519 13.1022C23.3289 13.1281 23.4116 13.132 23.4908 13.1134C23.5699 13.0948 23.6422 13.0544 23.6995 12.9968L26.762 9.93434C26.8194 9.87689 26.8597 9.80458 26.8783 9.72552C26.8969 9.64646 26.8931 9.56378 26.8674 9.48676L26.8677 9.48664L25.6407 5.80565L26.762 4.68434C26.8441 4.60229 26.8902 4.49102 26.8902 4.37499C26.8902 4.25896 26.8441 4.14768 26.762 4.06563L23.6995 1.00313C23.6175 0.92109 23.5062 0.875 23.3902 0.875C23.2741 0.875 23.1628 0.92109 23.0808 1.00313L21.9595 2.12443L18.2785 0.897444L18.2784 0.897804C18.2014 0.872042 18.1187 0.868251 18.0396 0.886855C17.9606 0.90546 17.8882 0.945724 17.8308 1.00313L14.7683 4.06563C14.7109 4.12308 14.6706 4.19539 14.652 4.27445C14.6334 4.35351 14.6372 4.43619 14.6629 4.51321L14.6626 4.51333L15.4747 6.94962C15.1058 6.77918 14.6936 6.72588 14.2935 6.79691C13.8934 6.86794 13.5247 7.05988 13.237 7.34688C12.8971 7.68435 12.6921 8.1343 12.6605 8.61223L11.9293 8.75848C11.8354 8.77729 11.7503 8.8264 11.687 8.89826C11.6238 8.97013 11.5858 9.06077 11.579 9.15628C11.2321 9.32604 10.9425 9.59352 10.7457 9.92581C10.5489 10.2581 10.4535 10.6407 10.4714 11.0265C10.1902 10.9916 9.9047 11.0286 9.64168 11.1341C9.37866 11.2396 9.1467 11.41 8.96752 11.6296C8.78833 11.8491 8.66778 12.1105 8.61714 12.3894C8.56651 12.6682 8.58744 12.9553 8.67799 13.2238C8.44529 13.2625 8.22339 13.3499 8.02681 13.4803C7.83023 13.6107 7.66341 13.7811 7.53727 13.9804C7.41113 14.1797 7.32852 14.4035 7.29484 14.6369C7.26117 14.8704 7.27719 15.1084 7.34185 15.3352L4.71603 14.4599L4.71592 14.4603C4.63888 14.4345 4.55619 14.4308 4.47713 14.4494C4.39806 14.468 4.32573 14.5082 4.26827 14.5656L1.20577 17.6281C1.14836 17.6856 1.1081 17.7579 1.08949 17.837C1.07088 17.916 1.07467 17.9987 1.10043 18.0757L1.10008 18.0758L2.32708 21.7568L1.20577 22.8781ZM24.7578 5.92381L25.4515 8.00512L19.76 2.3136L21.8413 3.00737L24.7578 5.92381ZM25.8339 4.37499L25.1402 5.06875L22.6964 2.62499L23.3902 1.93119L25.8339 4.37499ZM23.3902 12.0688L15.6964 4.37499L18.1402 1.93122L25.8339 9.62499L23.3902 12.0688ZM17.8585 9.16211L17.8585 9.16209L17.8576 9.16125L16.7725 8.07617L16.0788 5.99485L21.7703 11.6864L19.689 10.9926L17.8585 9.16211ZM14.6971 8.2049L13.5778 8.42876C13.6334 8.24524 13.7356 8.07925 13.8744 7.94698C14.0132 7.8147 14.184 7.72066 14.37 7.67401C14.5559 7.62736 14.7509 7.6297 14.9357 7.6808C15.1205 7.7319 15.2889 7.83002 15.4245 7.96559L15.6025 8.14358C15.2993 8.12475 14.995 8.14536 14.6971 8.2049ZM3.21004 21.6387L2.51627 19.5574L8.2078 25.2489L6.12647 24.5551L3.21004 21.6387ZM15.0571 15.0098C14.9357 14.9548 14.8251 14.8785 14.7307 14.7844L11.6683 11.7219C11.4605 11.5137 11.3439 11.2316 11.3439 10.9375C11.3439 10.6434 11.4605 10.3613 11.6683 10.1531C11.6904 10.131 11.7137 10.1102 11.7376 10.0901C11.9231 10.5948 12.2588 11.0305 12.6996 11.3385C13.1404 11.6464 13.6649 11.8119 14.2027 11.8125H14.7903C15.0499 11.8125 15.3036 11.8894 15.5195 12.0337C15.7353 12.1779 15.9036 12.3829 16.0029 12.6227C16.1022 12.8625 16.1282 13.1264 16.0776 13.381C16.0269 13.6357 15.9019 13.8695 15.7184 14.0531L15.5682 14.2031C15.3402 14.4308 15.1656 14.7063 15.0571 15.0098ZM13.1995 16.7531L9.69953 13.2531C9.62508 13.1789 9.56599 13.0907 9.52565 12.9936C9.4853 12.8965 9.4645 12.7924 9.46443 12.6873C9.46435 12.5821 9.48501 12.478 9.52521 12.3808C9.56542 12.2837 9.62438 12.1954 9.69873 12.121C9.77308 12.0467 9.86136 11.9877 9.95852 11.9475C10.0557 11.9073 10.1598 11.8867 10.265 11.8867C10.3701 11.8868 10.4742 11.9076 10.5713 11.948C10.6684 11.9883 10.7566 12.0474 10.8308 12.1219L10.848 12.1047C10.9089 12.1885 10.9763 12.2673 11.0495 12.3406L14.112 15.4031C14.1854 15.4763 14.2644 15.5435 14.3484 15.6043L14.3308 15.6219C14.4807 15.7719 14.5649 15.9754 14.5649 16.1875C14.5648 16.3996 14.4805 16.6029 14.3305 16.7529C14.1805 16.9029 13.9771 16.9872 13.765 16.9872C13.5529 16.9872 13.3495 16.903 13.1995 16.7531V16.7531ZM10.5747 17.6284L8.82453 15.8781L8.38703 15.4406C8.31257 15.3664 8.25348 15.2782 8.21314 15.1811C8.17279 15.084 8.15199 14.9799 8.15191 14.8748C8.15183 14.7696 8.17249 14.6655 8.21269 14.5683C8.25289 14.4712 8.31185 14.3829 8.3862 14.3085C8.46055 14.2342 8.54883 14.1752 8.64598 14.135C8.74314 14.0948 8.84727 14.0742 8.95242 14.0742C9.05756 14.0743 9.16166 14.0951 9.25876 14.1355C9.35586 14.1758 9.44405 14.2349 9.5183 14.3093L11.706 16.4971C11.8557 16.6472 11.9398 16.8505 11.9396 17.0625C11.9395 17.2745 11.8553 17.4778 11.7054 17.6277C11.5555 17.7776 11.3522 17.8619 11.1402 17.862C10.9282 17.8621 10.7248 17.7781 10.5747 17.6284ZM11.1953 19.4863L11.889 21.5676L6.1975 15.8761L8.27883 16.5699L9.95577 18.2468V18.2468L11.1953 19.4863ZM9.82765 25.6313L2.13386 17.9375L4.57765 15.4937L12.2714 23.1875L9.82765 25.6313ZM2.13386 23.1875L2.82765 22.4937L5.27142 24.9375L4.57765 25.6313L2.13386 23.1875Z" fill="#EFF2F1"/>
</svg>
