<svg width="20" height="20" viewBox="0 0 20 20" fill="none" xmlns="http://www.w3.org/2000/svg">
<path d="M0.861056 16.3415C0.802454 16.4001 0.769531 16.4796 0.769531 16.5625C0.769531 16.6454 0.802454 16.7249 0.861056 16.7835L3.04856 18.971C3.10717 19.0296 3.18666 19.0625 3.26954 19.0625C3.35243 19.0625 3.43192 19.0296 3.49053 18.971L4.29146 18.17L6.9207 19.0464L6.92078 19.0462C6.97579 19.0647 7.03489 19.0675 7.09139 19.0542C7.1479 19.0409 7.19956 19.0121 7.24053 18.971L9.42803 16.7835C9.46903 16.7424 9.49779 16.6908 9.51108 16.6343C9.52437 16.5778 9.52167 16.5188 9.50327 16.4638L9.50352 16.4637L8.98465 14.907L8.98606 14.9085C9.04467 14.9671 9.12416 15 9.20704 15H11.8547L14.7551 19.239L15.2709 18.886L12.4081 14.702L13.0136 13.9452L12.5255 13.5548L11.8693 14.375H9.33647L8.4906 13.5291L8.49053 13.529L8.29609 13.3346C8.48959 13.2775 8.66551 13.1723 8.80747 13.029C8.94943 12.8856 9.05283 12.7087 9.10805 12.5146C9.24877 12.6215 9.4114 12.6959 9.58428 12.7325C9.75715 12.7691 9.93599 12.767 10.1079 12.7262C10.2799 12.6855 10.4407 12.6073 10.5788 12.4971C10.7169 12.3868 10.829 12.2474 10.9068 12.0888C10.9679 12.185 11.0394 12.2742 11.1199 12.3548L11.1736 12.4085L11.6155 11.9665L11.5619 11.9129C11.3863 11.7369 11.2877 11.4985 11.2877 11.25C11.2878 11.0014 11.3863 10.763 11.5619 10.5871L11.6691 10.4799C11.8877 10.2614 12.0365 9.98295 12.0968 9.67985C12.1571 9.37675 12.1261 9.06257 12.0079 8.77705C11.8896 8.49154 11.6893 8.2475 11.4324 8.07581C11.1754 7.90412 10.8733 7.81248 10.5643 7.81249H10.1445C9.8567 7.81212 9.57778 7.71259 9.35472 7.53066C9.13167 7.34873 8.9781 7.0955 8.91987 6.81361L10.6203 6.47351C10.923 6.41261 11.2361 6.42757 11.5316 6.51704C11.8271 6.60651 12.0958 6.76772 12.3139 6.98628L13.6578 8.33025L13.6578 8.33026C13.8325 8.50396 13.971 8.71058 14.0652 8.93816C14.1595 9.16573 14.2077 9.40975 14.207 9.65608V11.5625C14.207 11.6151 14.2203 11.6668 14.2456 11.7129C14.2709 11.759 14.3074 11.7979 14.3518 11.8261L19.0393 14.8091L19.3748 14.2818L14.832 11.3909V9.65608C14.8326 9.32976 14.7691 9.00652 14.6452 8.70462L16.6082 9.35895L16.6083 9.3587C16.6633 9.37724 16.7224 9.38002 16.7789 9.36672C16.8354 9.35342 16.8871 9.32458 16.928 9.28346L19.1155 7.09596C19.1565 7.05492 19.1853 7.00327 19.1986 6.9468C19.2119 6.89033 19.2092 6.83127 19.1908 6.77626L19.191 6.77617L18.3146 4.14689L19.1155 3.34596C19.1741 3.28735 19.2071 3.20787 19.2071 3.12499C19.2071 3.04211 19.1741 2.96263 19.1155 2.90402L16.928 0.716524C16.8694 0.657922 16.7899 0.625 16.707 0.625C16.6242 0.625 16.5447 0.657922 16.4861 0.716524L15.6851 1.51745L13.0559 0.641031L13.0558 0.641289C13.0008 0.622887 12.9417 0.620179 12.8852 0.633468C12.8288 0.646757 12.7771 0.675517 12.7361 0.716523L10.5486 2.90402C10.5076 2.94506 10.4788 2.99671 10.4655 3.05318C10.4522 3.10965 10.4549 3.16871 10.4733 3.22372L10.4731 3.22381L11.0531 4.96402C10.7897 4.84227 10.4952 4.8042 10.2094 4.85494C9.92364 4.90567 9.66028 5.04277 9.45481 5.24777C9.21202 5.48882 9.0656 5.81022 9.04303 6.15159L8.52074 6.25605C8.45368 6.26949 8.39288 6.30457 8.34768 6.3559C8.30247 6.40723 8.27537 6.47198 8.27051 6.5402C8.02274 6.66145 7.81583 6.85252 7.67526 7.08987C7.53469 7.32722 7.4666 7.60049 7.47936 7.87605C7.27849 7.85112 7.07457 7.87757 6.8867 7.95291C6.69883 8.02825 6.53315 8.15003 6.40516 8.30684C6.27717 8.46366 6.19106 8.65038 6.15489 8.84954C6.11872 9.0487 6.13368 9.25378 6.19835 9.44559C6.03214 9.47321 5.87364 9.53563 5.73322 9.62876C5.59281 9.72189 5.47365 9.84363 5.38355 9.98601C5.29345 10.1284 5.23445 10.2882 5.21039 10.455C5.18634 10.6217 5.19778 10.7917 5.24397 10.9537L3.36838 10.3285L3.3683 10.3288C3.31328 10.3104 3.25421 10.3077 3.19774 10.321C3.14126 10.3343 3.0896 10.363 3.04855 10.404L0.861054 12.5915C0.820049 12.6326 0.791288 12.6842 0.777997 12.7407C0.764706 12.7971 0.767411 12.8562 0.785809 12.9112L0.785561 12.9113L1.66199 15.5406L0.861056 16.3415ZM17.6839 4.23129L18.1794 5.71794L14.1141 1.65257L15.6007 2.14812L17.6839 4.23129ZM18.4526 3.12499L17.957 3.62054L16.2115 1.87499L16.707 1.37942L18.4526 3.12499ZM16.707 8.62054L11.2115 3.12499L12.957 1.37944L18.4526 6.87499L16.707 8.62054ZM12.7558 6.54436L12.7559 6.54435L12.7552 6.54375L11.9802 5.76869L11.4846 4.28204L15.55 8.34741L14.0633 7.85186L12.7558 6.54436ZM10.4977 5.86064L9.69824 6.02055C9.73794 5.88946 9.81092 5.7709 9.91008 5.67641C10.0092 5.58193 10.1312 5.51476 10.264 5.48143C10.3969 5.44811 10.5361 5.44979 10.6681 5.48629C10.8001 5.52279 10.9204 5.59287 11.0173 5.68971L11.1444 5.81684C10.9279 5.80339 10.7105 5.81811 10.4977 5.86064ZM2.29267 15.4562L1.79713 13.9695L5.86251 18.0349L4.37584 17.5394L2.29267 15.4562ZM10.7549 10.7213C10.6681 10.682 10.5892 10.6275 10.5217 10.5603L8.33428 8.37277C8.1859 8.22406 8.10256 8.02257 8.10256 7.81249C8.10256 7.60241 8.1859 7.40092 8.33428 7.25221C8.35009 7.23639 8.36674 7.22157 8.38377 7.20719C8.51626 7.56769 8.75609 7.87891 9.07092 8.0989C9.38576 8.31888 9.76047 8.43706 10.1445 8.43749H10.5643C10.7497 8.43748 10.931 8.49246 11.0851 8.59548C11.2393 8.69849 11.3595 8.84491 11.4304 9.01622C11.5014 9.18753 11.52 9.37603 11.4838 9.55789C11.4476 9.73975 11.3583 9.9068 11.2272 10.0379L11.12 10.1451C10.9571 10.3077 10.8324 10.5045 10.7549 10.7213ZM9.42799 11.9665L6.92803 9.46652C6.87485 9.41349 6.83264 9.3505 6.80382 9.28114C6.77501 9.21178 6.76015 9.13743 6.76009 9.06232C6.76004 8.98722 6.7748 8.91284 6.80351 8.84344C6.83223 8.77404 6.87435 8.71099 6.92745 8.65788C6.98056 8.60478 7.04362 8.56266 7.11302 8.53395C7.18241 8.50523 7.25679 8.49048 7.3319 8.49053C7.407 8.49059 7.48136 8.50545 7.55072 8.53427C7.62007 8.56309 7.68307 8.60529 7.7361 8.65848L7.74834 8.64623C7.79187 8.70605 7.84001 8.76238 7.89231 8.81471L10.0798 11.0022C10.1322 11.0545 10.1887 11.1025 10.2486 11.146L10.2361 11.1585C10.3432 11.2657 10.4033 11.411 10.4033 11.5625C10.4032 11.714 10.343 11.8592 10.2359 11.9664C10.1287 12.0735 9.98346 12.1337 9.83196 12.1337C9.68047 12.1337 9.53516 12.0736 9.42799 11.9665L9.42799 11.9665ZM7.55318 12.5917L6.30303 11.3415L5.99053 11.029C5.93734 10.976 5.89514 10.913 5.86632 10.8436C5.8375 10.7743 5.82264 10.6999 5.82258 10.6248C5.82253 10.5497 5.83728 10.4753 5.866 10.4059C5.89471 10.3365 5.93683 10.2735 5.98993 10.2204C6.04304 10.1673 6.10609 10.1252 6.17549 10.0964C6.24489 10.0677 6.31927 10.053 6.39437 10.053C6.46948 10.0531 6.54383 10.0679 6.61319 10.0968C6.68255 10.1256 6.74554 10.1678 6.79857 10.221L8.36123 11.7836C8.46817 11.8908 8.5282 12.0361 8.52811 12.1875C8.52802 12.3389 8.46783 12.4841 8.36076 12.5912C8.25369 12.6983 8.10849 12.7585 7.95707 12.7586C7.80565 12.7587 7.66038 12.6986 7.55318 12.5917ZM7.99641 13.9188L8.49196 15.4054L4.42658 11.3401L5.91324 11.8356L7.11105 13.0334V13.0335L7.99641 13.9188ZM7.01954 18.308L1.52397 12.8125L3.26954 11.0669L8.76511 16.5625L7.01954 18.308ZM1.52397 16.5625L2.01954 16.0669L3.76509 17.8125L3.26954 18.3081L1.52397 16.5625Z" fill="#312829"/>
</svg>
