<svg width="100" height="100" viewBox="0 0 100 100" fill="none" xmlns="http://www.w3.org/2000/svg">
<g clip-path="url(#clip0)">
<path d="M50 70.8336C48.275 70.8336 46.875 69.4336 46.875 67.7086V3.125C46.875 1.39999 48.275 0 50 0C51.725 0 53.125 1.39999 53.125 3.125V67.7086C53.125 69.4336 51.725 70.8336 50 70.8336Z" fill="#312829"/>
<path d="M49.9996 70.8336C49.1993 70.8336 48.3997 70.5291 47.7909 69.9165L31.1245 53.2501C29.9038 52.0294 29.9038 50.0503 31.1245 48.8289C32.3452 47.6082 34.3243 47.6082 35.5457 48.8289L50.0034 63.2873L64.4619 48.8289C65.6826 47.6082 67.6624 47.6082 68.8831 48.8289C70.1039 50.0503 70.1039 52.0294 68.8831 53.2501L52.216 69.9165C51.5995 70.5291 50.8 70.8336 49.9996 70.8336Z" fill="#312829"/>
<path d="M88.5414 100H11.4586C5.13763 100 0 94.8623 0 88.5414V69.7914C0 68.0664 1.39999 66.6664 3.125 66.6664C4.85001 66.6664 6.25 68.0664 6.25 69.7914V88.5414C6.25 91.4123 8.58765 93.75 11.4586 93.75H88.5414C91.4124 93.75 93.75 91.4123 93.75 88.5414V69.7914C93.75 68.0664 95.15 66.6664 96.875 66.6664C98.6 66.6664 100 68.0664 100 69.7914V88.5414C100 94.8623 94.8624 100 88.5414 100Z" fill="#312829"/>
</g>
<defs>
<clipPath id="clip0">
<rect width="100" height="100" fill="white"/>
</clipPath>
</defs>
</svg>
