<svg width="33" height="33" viewBox="0 0 33 33" fill="none" xmlns="http://www.w3.org/2000/svg">
<g opacity="0.4">
<path d="M0.122219 16.1094C0.382099 15.7313 6.62745 6.87476 16.5001 6.87476C24.9716 6.87476 32.5205 15.6804 32.8381 16.0558C33.054 16.3115 33.054 16.6869 32.8381 16.944C32.5205 17.3194 24.9716 26.1251 16.5001 26.1251C8.02855 26.1251 0.479748 17.3194 0.162121 16.944C-0.0373001 16.7076 -0.0551567 16.3652 0.122219 16.1094ZM16.5001 24.7501C23.2913 24.7501 29.7484 18.2737 31.3888 16.4999C29.7511 14.7248 23.3009 8.24982 16.5001 8.24982C8.55385 8.24982 2.94512 14.7166 1.5756 16.4628C3.15692 18.1802 9.65112 24.7501 16.5001 24.7501Z" fill="#312829"/>
<path d="M16.5002 10.9998C19.5335 10.9998 22.0002 13.4665 22.0002 16.4998C22.0002 19.5331 19.5335 21.9999 16.5002 21.9999C13.4669 21.9999 11.0001 19.5331 11.0001 16.4998C11.0001 13.4665 13.4669 10.9998 16.5002 10.9998ZM16.5002 20.625C18.7744 20.625 20.6252 18.7742 20.6252 16.4999C20.6252 14.2256 18.7744 12.3748 16.5002 12.3748C14.2259 12.3748 12.3751 14.2256 12.3751 16.4999C12.3751 18.7742 14.2259 20.625 16.5002 20.625Z" fill="#312829"/>
</g>
</svg>
