<svg width="15" height="15" viewBox="0 0 15 15" fill="none" xmlns="http://www.w3.org/2000/svg">
<path d="M8.39122 10.3772C8.30872 10.3772 8.24182 10.4441 8.24182 10.5266V11.0644C8.24182 11.1469 8.30872 11.2139 8.39122 11.2139C8.47372 11.2139 8.54063 11.147 8.54063 11.0644V10.5266C8.54063 10.4441 8.47372 10.3772 8.39122 10.3772Z" fill="#DB4B1A"/>
<path d="M4.59264 8.16556H6.16107V13.1129C6.16107 13.1954 6.22797 13.2623 6.31047 13.2623H8.39123C8.47373 13.2623 8.54063 13.1954 8.54063 13.1129V12.1402C8.54063 12.0577 8.47373 11.9908 8.39123 11.9908C8.30873 11.9908 8.24183 12.0577 8.24183 12.1402V12.9635H6.45987V8.01616C6.45987 7.93366 6.39297 7.86675 6.31047 7.86675H4.74204V6.08483H6.3105C6.393 6.08483 6.4599 6.01793 6.4599 5.93543V4.18799C6.4599 3.00164 7.42513 2.03648 8.61157 2.03648H10.258V3.60861H9.12238C8.63685 3.60861 8.24183 4.00363 8.24183 4.48918V5.93546C8.24183 6.01796 8.30873 6.08486 8.39123 6.08486H10.2047L9.96982 7.86678H8.3912C8.3087 7.86678 8.2418 7.93369 8.2418 8.01619V9.4809C8.2418 9.5634 8.3087 9.6303 8.3912 9.6303C8.4737 9.6303 8.5406 9.5634 8.5406 9.4809V8.16559H10.1008C10.1758 8.16559 10.2391 8.11001 10.2489 8.0357L10.5232 5.95497C10.5288 5.9123 10.5158 5.8693 10.4874 5.83694C10.459 5.80458 10.4181 5.78603 10.3751 5.78603H8.5406V4.48915C8.5406 4.16836 8.80158 3.90738 9.12234 3.90738H10.4074C10.4899 3.90738 10.5568 3.84048 10.5568 3.75798V1.88707C10.5568 1.80457 10.4899 1.73767 10.4074 1.73767H8.61154C7.26034 1.73767 6.16107 2.83688 6.16107 4.18799V5.78603H4.59264C4.51014 5.78603 4.44324 5.85293 4.44324 5.93543V8.01616C4.44324 8.09866 4.51014 8.16556 4.59264 8.16556Z" fill="#312829"/>
</svg>
