<svg width="15" height="15" viewBox="0 0 15 15" fill="none" xmlns="http://www.w3.org/2000/svg">
<path d="M8.39122 10.3774C8.30872 10.3774 8.24182 10.4443 8.24182 10.5268V11.0647C8.24182 11.1472 8.30872 11.2141 8.39122 11.2141C8.47372 11.2141 8.54063 11.1472 8.54063 11.0647V10.5268C8.54063 10.4443 8.47372 10.3774 8.39122 10.3774Z" fill="#DB4B1A"/>
<path d="M4.59261 8.16568H6.16104V13.1131C6.16104 13.1956 6.22794 13.2625 6.31044 13.2625H8.3912C8.4737 13.2625 8.5406 13.1956 8.5406 13.113V12.1404C8.5406 12.0579 8.4737 11.9909 8.3912 11.9909C8.3087 11.9909 8.2418 12.0579 8.2418 12.1404V12.9636H6.45984V8.01628C6.45984 7.93378 6.39294 7.86688 6.31044 7.86688H4.74201V6.08495H6.31047C6.39297 6.08495 6.45987 6.01805 6.45987 5.93555V4.18811C6.45987 3.00177 7.4251 2.0366 8.61154 2.0366H10.258V3.60873H9.12234C8.63682 3.60873 8.2418 4.00375 8.2418 4.48931V5.93558C8.2418 6.01808 8.3087 6.08498 8.3912 6.08498H10.2046L9.96979 7.86691H8.39117C8.30867 7.86691 8.24177 7.93381 8.24177 8.01631V9.48102C8.24177 9.56352 8.30867 9.63042 8.39117 9.63042C8.47367 9.63042 8.54057 9.56352 8.54057 9.48102V8.16571H10.1008C10.1758 8.16571 10.2391 8.11013 10.2489 8.03582L10.5231 5.95509C10.5288 5.91242 10.5157 5.86943 10.4873 5.83707C10.459 5.8047 10.4181 5.78615 10.375 5.78615H8.54057V4.48928C8.54057 4.16848 8.80155 3.9075 9.12231 3.9075H10.4073C10.4898 3.9075 10.5567 3.8406 10.5567 3.7581V1.8872C10.5567 1.8047 10.4898 1.73779 10.4073 1.73779H8.61151C7.26031 1.73779 6.16104 2.83701 6.16104 4.18811V5.78615H4.59261C4.51011 5.78615 4.44321 5.85305 4.44321 5.93555V8.01628C4.44321 8.09878 4.51011 8.16568 4.59261 8.16568Z" fill="#EFF2F1"/>
</svg>
