<svg width="20" height="20" viewBox="0 0 20 20" fill="none" xmlns="http://www.w3.org/2000/svg">
<path d="M19.9191 11.252C19.8539 11.7589 19.567 12.2007 19.1322 12.4624C18.7043 12.7198 18.1896 12.7685 17.7122 12.5894C17.3339 12.4485 16.9087 12.6433 16.7365 13.0276C16.5339 13.4824 16.2844 13.9172 15.9939 14.3198C15.7426 14.6702 15.7896 15.1285 16.1017 15.3859C16.4887 15.7042 16.7043 16.1737 16.6956 16.6754C16.6852 17.1833 16.4461 17.6529 16.0374 17.9624C15.373 18.4659 14.6478 18.885 13.8818 19.2076C13.4078 19.4067 12.8792 19.3806 12.4331 19.1346C11.9948 18.8928 11.6966 18.4711 11.6139 17.978C11.547 17.5763 11.1722 17.3111 10.74 17.352C10.2548 17.4033 9.74787 17.4033 9.26005 17.352C8.82615 17.312 8.45396 17.5763 8.38699 17.978C8.30527 18.4719 8.00612 18.8937 7.56786 19.1346C7.12177 19.3798 6.59307 19.4067 6.11918 19.2076C5.35308 18.885 4.62786 18.4659 3.96354 17.9624C3.55483 17.6528 3.31573 17.1841 3.3053 16.6754C3.29572 16.1737 3.51224 15.7042 3.90008 15.3841C4.21227 15.1276 4.25833 14.6694 4.00704 14.3198C3.71661 13.9163 3.46618 13.4816 3.26441 13.0285C3.09049 12.6424 2.66095 12.4494 2.27918 12.5928C1.81137 12.7685 1.29656 12.7215 0.86788 12.4633C0.433084 12.2006 0.146128 11.7598 0.0809103 11.2537C0.0269429 10.8407 0 10.4189 0 9.9998C0 9.58066 0.0269429 9.15895 0.0808695 8.74763C0.146087 8.24069 0.433043 7.79892 0.867839 7.5372C1.29566 7.27894 1.81133 7.23023 2.28782 7.41022C2.66694 7.55195 3.09216 7.3563 3.26348 6.97196C3.4661 6.5172 3.71564 6.0824 4.0061 5.6798C4.25739 5.32938 4.21043 4.87111 3.89829 4.61371C3.51134 4.29544 3.29568 3.82588 3.30436 3.32415C3.31479 2.81631 3.55394 2.34675 3.96261 2.03721C4.62697 1.53374 5.35218 1.11459 6.11824 0.792011C6.32869 0.70417 6.54953 0.659822 6.76956 0.659822C7.04523 0.659822 7.31914 0.728504 7.56697 0.86591C8.00523 1.10766 8.30347 1.52937 8.3861 2.02242C8.45306 2.42415 8.82611 2.69285 9.26001 2.6485C9.74522 2.59719 10.2522 2.59719 10.74 2.6485C11.1713 2.69371 11.5461 2.42415 11.613 2.02242C11.6948 1.52852 11.9939 1.10677 12.4322 0.86591C12.8783 0.620693 13.407 0.59375 13.8809 0.792866C14.647 1.11549 15.3722 1.53459 16.0365 2.03807C16.4452 2.34765 16.6843 2.81631 16.6947 3.32501C16.7034 3.82674 16.4869 4.2963 16.1 4.61546C15.7878 4.87197 15.7417 5.33024 15.993 5.6798C16.2834 6.0833 16.5339 6.51805 16.7356 6.97111C16.9087 7.35634 17.333 7.55199 17.7121 7.41022L17.8643 7.81718L17.7208 7.40676C18.1904 7.22937 18.7034 7.27718 19.1321 7.53634C19.5669 7.79896 19.8539 8.23983 19.9191 8.74592C19.973 9.15895 20 9.5807 20 9.99984C20 10.4189 19.973 10.8407 19.9191 11.252ZM19.0574 8.85719C19.0269 8.61544 18.8896 8.40589 18.6835 8.28153C18.4852 8.16153 18.2461 8.1398 18.0226 8.22239L18.0148 8.22499C17.2165 8.52324 16.3035 8.12933 15.9417 7.32585C15.7635 6.92587 15.5435 6.54324 15.2869 6.18671C14.7661 5.45974 14.8782 4.49542 15.5496 3.94237C15.7296 3.79453 15.8296 3.57541 15.8252 3.34238C15.82 3.10062 15.707 2.87717 15.5122 2.73019C14.9044 2.2702 14.2435 1.88758 13.5435 1.59365C13.3174 1.49888 13.0643 1.51018 12.8522 1.62757C12.6452 1.74149 12.5104 1.93278 12.4713 2.16581C12.3278 3.02668 11.5496 3.60235 10.6496 3.51276C10.2218 3.46841 9.77743 3.46841 9.35131 3.51276C8.45131 3.61189 7.67217 3.02839 7.52869 2.16581C7.49042 1.93278 7.35476 1.74145 7.14782 1.62757C6.93566 1.50932 6.68262 1.49799 6.45652 1.59365C5.75653 1.88758 5.09478 2.27016 4.48781 2.73019C4.29391 2.87713 4.17998 3.10062 4.17477 3.34148C4.1704 3.57451 4.27129 3.79364 4.45129 3.94233C5.12258 4.49538 5.23475 5.45974 4.71301 6.18667C4.4565 6.5432 4.23648 6.92578 4.05737 7.32667C3.78 7.94668 3.17303 8.32319 2.53826 8.32319C2.34958 8.32319 2.15914 8.29013 1.97393 8.22145C1.75565 8.13883 1.51655 8.16145 1.31739 8.28145C1.11045 8.40581 0.973899 8.61536 0.943491 8.85797C0.893926 9.23362 0.869592 9.61796 0.869592 9.99972C0.869592 10.3814 0.893926 10.7658 0.943491 11.1432C0.97394 11.3849 1.1113 11.5945 1.31739 11.7189C1.5148 11.838 1.7539 11.8615 1.98346 11.7754C2.78694 11.4754 3.69738 11.8693 4.05823 12.6736C4.23648 13.0736 4.4565 13.4562 4.71301 13.8128C5.23475 14.5397 5.12258 15.505 4.45039 16.0571C4.27039 16.2049 4.1704 16.4241 4.17473 16.6571C4.17994 16.8989 4.29387 17.1215 4.48777 17.2693C5.09474 17.7293 5.75645 18.1119 6.45648 18.4058C6.68258 18.5015 6.93562 18.4902 7.14778 18.3728C7.35472 18.2588 7.48952 18.0676 7.52865 17.8345C7.67298 16.9728 8.45559 16.3928 9.35037 16.4858C9.7782 16.5302 10.2225 16.5302 10.6486 16.4858C11.5478 16.3937 12.3278 16.971 12.4713 17.8328C12.5095 18.0658 12.6452 18.2571 12.8521 18.371C13.0643 18.4893 13.3173 18.5006 13.5434 18.4049C14.2434 18.111 14.9052 17.7284 15.5121 17.2684C15.706 17.1215 15.82 16.898 15.8252 16.6571C15.8296 16.4241 15.7287 16.2049 15.5487 16.0563C14.8774 15.5032 14.7652 14.5388 15.2869 13.8119C15.5435 13.4554 15.7635 13.0728 15.9426 12.6719C16.3026 11.8676 17.213 11.4754 18.0261 11.778C18.2435 11.8615 18.4835 11.838 18.6826 11.718C18.8896 11.5936 19.0261 11.3841 19.0565 11.1415C19.1061 10.7658 19.1304 10.3815 19.1304 9.99972C19.1304 9.61804 19.1061 9.2337 19.0574 8.85719Z" fill="#EFF2F1"/>
<path d="M9.99996 13.9128C7.84257 13.9128 6.08691 12.1572 6.08691 9.9998C6.08691 7.84241 7.84257 6.08676 9.99996 6.08676C12.1574 6.08676 13.913 7.84241 13.913 9.9998C13.913 12.1572 12.1574 13.9128 9.99996 13.9128ZM9.99996 6.95631C8.32171 6.95631 6.95647 8.32151 6.95647 9.9998C6.95647 11.6781 8.32167 13.0433 9.99996 13.0433C11.6782 13.0433 13.0435 11.678 13.0435 9.9998C13.0435 8.32156 11.6782 6.95631 9.99996 6.95631Z" fill="#EFF2F1"/>
</svg>
