<svg width="77" height="77" viewBox="0 0 77 77" fill="none" xmlns="http://www.w3.org/2000/svg">
<g clip-path="url(#clip0)">
<path d="M76.5552 53.5183L72.8843 49.8773C72.2943 49.2921 71.342 49.2962 70.757 49.886C70.1718 50.4759 70.1759 51.4283 70.7657 52.0133L74.4365 55.6543C74.7297 55.9453 75.1128 56.0906 75.4957 56.0906C75.8826 56.0906 76.2696 55.9421 76.5636 55.6455C77.1489 55.0557 77.145 54.1033 76.5552 53.5183Z" fill="#EFF2F1"/>
<path d="M69.1439 46.152C68.5564 45.5646 67.6043 45.5646 67.0166 46.152L67.014 46.1546C66.4266 46.742 66.428 47.6932 67.0154 48.2806C67.3087 48.574 67.6935 48.7207 68.0782 48.7207C68.4638 48.7207 68.8497 48.5734 69.1437 48.2794C69.7311 47.692 69.7311 46.7396 69.1439 46.152Z" fill="#EFF2F1"/>
<path d="M56.3198 53.0879L70.9119 38.4959C73.1219 36.2858 73.1219 32.6896 70.9118 30.4795C70.1324 29.7002 69.1806 29.197 68.1781 28.9673C68.5219 28.2283 68.7039 27.4172 68.7039 26.5779C68.7039 25.0638 68.1142 23.6403 67.0437 22.5698C66.2041 21.7301 65.147 21.1878 63.9996 20.9924C64.6456 19.0244 64.189 16.7705 62.6269 15.2085C61.768 14.3498 60.6998 13.8264 59.5849 13.6351C59.7717 13.0683 59.8702 12.4698 59.8702 11.8556C59.8702 10.3414 59.2805 8.91799 58.2101 7.84751C57.1394 6.77703 55.716 6.18735 54.202 6.18735C53.2406 6.18735 52.3161 6.42587 51.4948 6.87373L51.3497 6.71778C49.4635 4.69081 46.7936 3.52844 44.0251 3.52844H32.2134C31.3828 3.52844 30.7092 4.20204 30.7092 5.03265V7.00517C30.7092 7.79457 30.8427 8.56307 31.0981 9.2857C30.4177 9.00311 29.6816 8.85468 28.9227 8.85468C27.4086 8.85468 25.9851 9.44436 24.9145 10.5148C23.3516 12.0777 22.8955 14.3333 23.5429 16.3019C22.4272 16.4927 21.3575 17.0164 20.4978 17.8759C19.4273 18.9465 18.8377 20.3699 18.8377 21.8839C18.8377 22.4969 18.9359 23.0946 19.1219 23.6602C17.9759 23.8561 16.9199 24.3981 16.081 25.2372C14.355 26.9632 13.977 29.5349 14.9472 31.6312C13.9199 31.8659 12.9763 32.3833 12.2127 33.1468C10.0027 35.3568 10.0027 38.9529 12.2127 41.1631L15.2135 44.1638L0.440081 58.937C-0.147345 59.5244 -0.147345 60.4769 0.440081 61.0644C0.733794 61.358 1.11879 61.5051 1.50364 61.5051C1.88849 61.5051 2.27349 61.3581 2.56721 61.0644L17.4832 46.1484C18.3277 46.6302 19.286 46.888 20.2847 46.888C21.7987 46.888 23.2221 46.2983 24.2928 45.2277C25.4559 44.0647 26.006 42.5177 25.9448 40.9909C26.0211 40.994 26.0973 40.9963 26.1736 40.9963C27.6248 40.9962 29.0769 40.4436 30.1816 39.3389C31.2521 38.2682 31.8418 36.8448 31.8418 35.3308C31.8418 35.2542 31.8392 35.1781 31.8362 35.102C31.9116 35.1051 31.9869 35.1075 32.0624 35.1075C33.5138 35.1075 34.9655 34.5549 36.0705 33.45C37.1409 32.3794 37.7306 30.9559 37.7306 29.4419C37.7306 29.3654 37.7281 29.2893 37.7251 29.2132C37.8004 29.2162 37.8758 29.2186 37.9513 29.2186C39.4028 29.2186 40.8544 28.6661 41.9593 27.5612C44.0359 25.4846 44.1609 22.1845 42.3353 19.9601L52.3203 9.97509C52.8228 9.47248 53.4905 9.19591 54.2011 9.19591C54.9117 9.19591 55.5796 9.47248 56.082 9.97509C56.5845 10.4775 56.8611 11.1453 56.8611 11.8559C56.8611 12.5663 56.5845 13.2344 56.0819 13.7367L54.6097 15.2088L49.2681 20.5504C48.6807 21.1378 48.6807 22.0903 49.2681 22.6778C49.5619 22.9714 49.9469 23.1185 50.3317 23.1185C50.7166 23.1185 51.1016 22.9715 51.3953 22.6778L56.7368 17.3363C57.7738 16.2992 59.4613 16.299 60.4986 17.3361C61.5356 18.3734 61.5356 20.0607 60.4986 21.098L59.0262 22.5703L55.157 26.4395C54.5696 27.027 54.5696 27.9794 55.157 28.567C55.4507 28.8605 55.8357 29.0076 56.2205 29.0076C56.6054 29.0076 56.9904 28.8607 57.2841 28.567L61.1534 24.6977C61.6558 24.1951 62.3237 23.9186 63.0341 23.9186C63.7447 23.9186 64.4126 24.1951 64.9151 24.6977C65.4175 25.2002 65.6941 25.8679 65.6941 26.5785C65.6941 27.289 65.4175 27.957 64.9149 28.4593L62.8941 30.4801L61.0457 32.3285C60.4583 32.916 60.4583 33.8684 61.0457 34.456C61.3394 34.7495 61.7244 34.8966 62.1092 34.8966C62.4941 34.8966 62.8791 34.7497 63.1728 34.456L65.0226 32.6062C66.0599 31.5707 67.7463 31.5709 68.783 32.6075C69.8202 33.6446 69.8202 35.3321 68.783 36.3694L54.1909 50.9613C50.5268 54.6256 45.657 56.7469 40.4786 56.9349C40.0979 56.9487 39.7364 57.1064 39.4675 57.3766L25.9877 70.9063C25.4013 71.4948 25.403 72.4472 25.9916 73.0336C26.285 73.3259 26.6691 73.4723 27.0532 73.4723C27.439 73.4723 27.825 73.3247 28.1187 73.0297L38.0335 63.0783C40.552 64.694 43.5137 65.4622 46.5253 65.263L54.2852 73.023C54.5789 73.3166 54.9639 73.4637 55.3487 73.4637C55.7337 73.4637 56.1186 73.3167 56.4123 73.023C56.9997 72.4356 56.9997 71.4832 56.4123 70.8956L48.1619 62.6443C47.8495 62.3321 47.4155 62.1725 46.9753 62.2086L46.4984 62.2477C44.2971 62.4282 42.1213 61.946 40.2215 60.8814L41.1883 59.9112C46.9055 59.5586 52.2582 57.1496 56.3198 53.0879ZM22.1657 43.1006C21.6632 43.6032 20.9952 43.8797 20.2849 43.8797C19.5743 43.8797 18.9064 43.6032 18.4041 43.1006L14.3396 39.0363C13.3025 37.9992 13.3025 36.3116 14.3396 35.2744C14.8421 34.7718 15.5101 34.4952 16.2206 34.4952C16.931 34.4952 17.599 34.7718 18.1013 35.2744L22.1658 39.3387C23.2027 40.3758 23.2027 42.0633 22.1657 43.1006ZM28.0548 37.2114C27.0176 38.2485 25.3297 38.2485 24.2929 37.2114L20.2285 33.147L18.2075 31.126C17.1704 30.0889 17.1704 28.4014 18.2075 27.3643C18.71 26.8617 19.378 26.5851 20.0883 26.5851C20.7989 26.5851 21.4668 26.8617 21.9691 27.3643L28.0543 33.4496C28.0543 33.4496 28.0543 33.4496 28.0545 33.4496C28.5571 33.9522 28.8337 34.62 28.8337 35.3305C28.8337 36.0409 28.5571 36.709 28.0548 37.2114ZM33.9436 31.3224C32.9064 32.3594 31.2187 32.3595 30.1818 31.3224L22.6242 23.7649C22.1217 23.2624 21.8452 22.5947 21.8452 21.8841C21.8452 21.1736 22.1217 20.5056 22.6243 20.0033C23.1429 19.4847 23.8242 19.2255 24.5051 19.2255C25.1858 19.2255 25.8663 19.4844 26.3847 20.0021L29.8293 23.4466L33.9433 27.5607H33.9435C34.4458 28.0632 34.7224 28.7309 34.7224 29.4415C34.7227 30.1521 34.4461 30.8201 33.9436 31.3224ZM39.8326 25.4334C38.7955 26.4705 37.108 26.4705 36.0709 25.4334L28.5133 17.8759C28.5126 17.8751 28.5117 17.8744 28.5108 17.8735L27.041 16.4037C26.0039 15.3664 26.0039 13.6791 27.041 12.6418C27.5596 12.1231 28.2408 11.8638 28.922 11.8638C29.6031 11.8638 30.2843 12.1231 30.8027 12.6418L39.8323 21.6714C40.3349 22.1739 40.6115 22.8418 40.6115 23.5522C40.6117 24.2629 40.3352 24.9311 39.8326 25.4334ZM40.2282 17.8128L36.0966 13.6813C36.5651 13.7813 37.0468 13.8344 37.5371 13.8343C37.5481 13.8343 37.5592 13.8343 37.5703 13.8343L41.6982 13.8149C42.5288 13.8109 43.1993 13.1343 43.1954 12.3036C43.1915 11.4752 42.5188 10.8064 41.6913 10.8064C41.6889 10.8064 41.6865 10.8064 41.6841 10.8064L37.5562 10.8258C37.5499 10.8258 37.5438 10.8258 37.5375 10.8258C36.5204 10.8258 35.5638 10.4311 34.8425 9.71326C34.1167 8.99078 33.7172 8.02918 33.7172 7.00502V6.53671H44.0246C45.9609 6.53671 47.828 7.34957 49.1472 8.76715L49.2084 8.83287L40.2282 17.8128Z" fill="#EFF2F1"/>
</g>
<defs>
<clipPath id="clip0">
<rect width="77" height="77" fill="white"/>
</clipPath>
</defs>
</svg>
