<svg width="15" height="15" viewBox="0 0 15 15" fill="none" xmlns="http://www.w3.org/2000/svg">
<path d="M5.07421 12.4694H9.92579C11.3284 12.4694 12.4695 11.3283 12.4695 9.9256V5.07406C12.4695 3.67141 11.3284 2.53027 9.92576 2.53027H5.07421C3.67156 2.53027 2.53043 3.67141 2.53043 5.07406V9.9256C2.53043 11.3283 3.67156 12.4694 5.07421 12.4694ZM2.82923 5.07409C2.82923 3.8362 3.83632 2.82911 5.07421 2.82911V2.82908H9.92576C11.1636 2.82908 12.1707 3.83617 12.1707 5.07406V9.92563C12.1707 11.1635 11.1636 12.1706 9.92576 12.1706H5.07421C3.83632 12.1706 2.82923 11.1635 2.82923 9.92563V5.07409Z" fill="#EFF2F1"/>
<path d="M10.4871 5.16927C10.849 5.16927 11.1435 4.87483 11.1435 4.51286C11.1435 4.15089 10.849 3.85645 10.4871 3.85645C10.1251 3.85645 9.83066 4.15089 9.83066 4.51286C9.83066 4.87483 10.1251 5.16927 10.4871 5.16927ZM10.4871 4.15525C10.6842 4.15525 10.8447 4.31568 10.8447 4.51286C10.8447 4.71004 10.6843 4.87047 10.4871 4.87047C10.2899 4.87047 10.1295 4.71004 10.1295 4.51286C10.1295 4.31568 10.2899 4.15525 10.4871 4.15525Z" fill="#EFF2F1"/>
<path d="M5.23904 11.3844C5.32157 11.3844 5.38844 11.3175 5.38844 11.235C5.38844 11.1525 5.32154 11.0856 5.23904 11.0856C4.50861 11.0856 3.91434 10.4913 3.91434 9.76089V7.05175C3.91434 6.96925 3.84744 6.90234 3.76494 6.90234C3.68244 6.90234 3.61554 6.96925 3.61554 7.05175V9.76092C3.61554 10.6561 4.34385 11.3844 5.23904 11.3844Z" fill="#EFF2F1"/>
<path d="M3.76494 5.97631C3.84744 5.97631 3.91434 5.90941 3.91434 5.82691V5.23925C3.91434 5.15675 3.84744 5.08984 3.76494 5.08984C3.68244 5.08984 3.61554 5.15675 3.61554 5.23925V5.82691C3.61554 5.90941 3.68244 5.97631 3.76494 5.97631Z" fill="#DB4B1A"/>
<path d="M9.79849 6.485C9.8232 6.54073 9.87785 6.57387 9.93513 6.57387C9.95536 6.57387 9.97592 6.56974 9.99564 6.56099C10.0711 6.52755 10.1051 6.43925 10.0716 6.36384C9.96579 6.12521 9.82699 5.90224 9.65912 5.70112C9.60623 5.6378 9.51205 5.62928 9.44867 5.68217C9.38533 5.73503 9.37681 5.82924 9.4297 5.89259C9.57982 6.07241 9.70388 6.27174 9.79849 6.485Z" fill="#DB4B1A"/>
<path d="M7.50001 5.95459C6.648 5.95459 5.9548 6.64779 5.9548 7.4998C5.9548 8.35182 6.64797 9.04501 7.50001 9.04501C8.35205 9.04501 9.04524 8.35182 9.04524 7.4998C9.04524 6.64779 8.35202 5.95459 7.50001 5.95459ZM7.50001 8.74621C6.81273 8.74621 6.25361 8.18708 6.25361 7.4998C6.25361 6.81252 6.81273 6.2534 7.50001 6.2534C8.18729 6.2534 8.74644 6.81252 8.74644 7.4998C8.74644 8.18708 8.18729 8.74621 7.50001 8.74621Z" fill="#EFF2F1"/>
<path d="M7.49999 10.3115C9.05027 10.3115 10.3115 9.05024 10.3115 7.49999C10.3115 7.41749 10.2447 7.35058 10.1621 7.35058C10.0796 7.35058 10.0127 7.41749 10.0127 7.49999C10.0127 8.88548 8.88551 10.0127 7.50002 10.0127C6.11452 10.0127 4.98731 8.88548 4.98731 7.49999C4.98731 6.11449 6.11452 4.98728 7.50002 4.98728C7.87454 4.98728 8.23505 5.06808 8.57153 5.2274C8.64608 5.26269 8.73516 5.2309 8.77047 5.15631C8.80582 5.08173 8.77397 4.99266 8.69939 4.95734C8.3226 4.77892 7.91906 4.68848 7.49999 4.68848C5.9497 4.68848 4.68848 5.9497 4.68848 7.49999C4.68848 9.05027 5.94973 10.3115 7.49999 10.3115Z" fill="#EFF2F1"/>
</svg>
