<svg width="189" height="73" viewBox="0 0 189 73" fill="none" xmlns="http://www.w3.org/2000/svg">
<path d="M188.553 28.4257C188.083 27.749 187.312 27.3456 186.489 27.3456H155.089C154.635 21.6325 152.856 16.0701 149.783 11.3317C145.689 5.01889 138.925 1.10331 131.69 0.856806C131.265 0.842158 130.364 0.845924 130.341 0.845924H29.7619C13.3509 0.845924 0 16.8397 0 36.4984C0 56.1575 13.3509 72.1508 29.7619 72.1508L89.9282 72.1546C89.9282 72.1546 89.9286 72.1546 89.929 72.1546L129.119 72.1437H129.119C142.362 72.1433 155.06 68.1206 165.842 60.5091C176.384 53.0672 184.337 42.7723 188.841 30.7368C189.129 29.9659 189.022 29.102 188.553 28.4257ZM145.569 14.0641C150.963 22.3808 151.654 34.1886 147.29 43.4477C145.002 48.3062 141.165 51.7669 136.762 52.9425C132.971 53.954 129.012 53.2057 125.612 50.834C122.612 48.7431 120.468 45.2352 119.614 41.151H138.44C139.412 41.151 140.297 40.5897 140.711 39.7104C143.876 32.9955 141.96 24.673 136.351 20.7649C134.142 19.2231 131.662 18.4192 129.142 18.3924C129.088 18.389 110.93 18.384 110.93 18.384C115.366 10.95 122.44 6.04089 130.394 5.87139C130.405 5.87097 131.259 5.86721 131.518 5.876C137.116 6.06684 142.368 9.1274 145.569 14.0641ZM106.091 36.4984C106.091 31.8295 106.953 27.387 108.491 23.4061H118.767C117.844 24.5001 117.041 25.7439 116.395 27.1162C114.711 30.6936 113.964 34.7365 114.237 38.8077C114.237 38.8086 114.237 38.809 114.237 38.8098C114.622 44.574 117.025 49.8342 120.785 53.3585H110.193C107.601 48.5075 106.091 42.7066 106.091 36.4984ZM120.939 29.2565C122.29 26.388 124.534 24.3507 127.095 23.6673C129.259 23.0902 131.526 23.5216 133.479 24.8847C136.642 27.0886 137.962 31.9672 136.718 36.1293H119.232C119.36 33.7203 119.939 31.3796 120.939 29.2565ZM89.9282 67.1325L29.7619 67.1287C16.1206 67.1287 5.02212 53.3882 5.02212 36.4984C5.02212 19.6086 16.1206 5.86804 29.7619 5.86804H115.557C113.344 7.45587 111.29 9.40236 109.448 11.6803C104.045 18.3627 101.069 27.1765 101.069 36.4984C101.069 49.4316 106.879 60.8741 115.602 67.1254L89.9282 67.1325ZM162.946 56.4065C153.276 63.2328 141.929 66.9182 130.075 67.1069C129.908 67.1095 129.391 67.0756 129.296 67.0685C123.157 66.6027 117.647 63.3939 113.537 58.4099C113.537 58.4099 133.092 58.4099 133.408 58.4099C134.958 58.4099 136.517 58.2065 138.058 57.7951C143.893 56.237 148.914 51.7878 151.833 45.5884C153.792 41.4322 154.889 36.9144 155.147 32.3677H182.747C178.445 41.9997 171.654 50.2586 162.946 56.4065Z" fill="#EFF2F1"/>
</svg>
