<svg width="189" height="190" viewBox="0 0 189 190" fill="none" xmlns="http://www.w3.org/2000/svg">
<path d="M174.234 26.864H138.797V15.0552C138.797 14.5379 138.661 14.0297 138.403 13.5813C138.145 13.1329 137.774 12.7602 137.327 12.5005C136.879 12.2407 136.371 12.1031 135.854 12.1013C135.336 12.0996 134.827 12.2338 134.378 12.4905L118.125 21.7752V15.0552C118.125 14.2722 117.814 13.5213 117.26 12.9677C116.706 12.414 115.955 12.103 115.172 12.103H53.1562C52.373 12.103 51.6219 12.414 51.0681 12.9677C50.5143 13.5213 50.2031 14.2722 50.2031 15.0552V26.864H14.7656C11.6338 26.8676 8.63132 28.1128 6.41681 30.3267C4.2023 32.5405 2.95664 35.5421 2.95312 38.6729V139.048C2.95664 142.179 4.2023 145.18 6.41681 147.394C8.63132 149.608 11.6338 150.853 14.7656 150.857H75.6369L71.6982 162.666H62.0156C61.2324 162.666 60.4813 162.977 59.9274 163.53C59.3736 164.084 59.0625 164.835 59.0625 165.618V174.475C59.0625 175.258 59.3736 176.008 59.9274 176.562C60.4813 177.116 61.2324 177.427 62.0156 177.427H126.984C127.768 177.427 128.519 177.116 129.073 176.562C129.626 176.008 129.938 175.258 129.938 174.475V165.618C129.938 164.835 129.626 164.084 129.073 163.53C128.519 162.977 127.768 162.666 126.984 162.666H117.302L113.363 150.857H174.234C177.366 150.853 180.368 149.607 182.583 147.394C184.797 145.18 186.043 142.179 186.047 139.048V38.6729C186.043 35.5422 184.797 32.541 182.583 30.3273C180.368 28.1136 177.366 26.8682 174.234 26.864ZM118.125 28.5763L132.891 20.1441V57.2017L118.125 48.7694V28.5763ZM56.1094 18.0074H112.219V59.3384H56.1094V18.0074ZM124.031 168.57V171.522H64.9688V168.57H124.031ZM77.9256 162.666L81.8643 150.857H107.136L111.074 162.666H77.9256ZM180.141 139.048C180.139 140.613 179.516 142.114 178.408 143.221C177.301 144.328 175.8 144.95 174.234 144.952H14.7656C13.1998 144.95 11.6987 144.328 10.5915 143.221C9.48435 142.114 8.86143 140.613 8.85938 139.048V133.144H180.141V139.048ZM180.141 127.239H8.85938V38.6729C8.86143 37.1076 9.48435 35.6069 10.5915 34.5001C11.6987 33.3932 13.1998 32.7705 14.7656 32.7685H50.2031V62.2906C50.2031 63.0735 50.5143 63.8244 51.0681 64.3781C51.6219 64.9317 52.373 65.2428 53.1562 65.2428H115.172C115.955 65.2428 116.706 64.9317 117.26 64.3781C117.814 63.8244 118.125 63.0735 118.125 62.2906V55.5706L134.378 64.8553C134.827 65.112 135.336 65.2462 135.854 65.2444C136.371 65.2427 136.879 65.1051 137.327 64.8453C137.774 64.5856 138.145 64.2129 138.403 63.7645C138.661 63.3161 138.797 62.8078 138.797 62.2906V32.7685H174.234C175.8 32.7705 177.301 33.3932 178.408 34.5001C179.516 35.6069 180.139 37.1076 180.141 38.6729V127.239Z" fill="#EFF2F1"/>
<path d="M35.4375 136.096H17.7188C16.9355 136.096 16.1844 136.407 15.6306 136.96C15.0768 137.514 14.7656 138.265 14.7656 139.048C14.7656 139.831 15.0768 140.582 15.6306 141.135C16.1844 141.689 16.9355 142 17.7188 142H35.4375C36.2207 142 36.9719 141.689 37.5257 141.135C38.0795 140.582 38.3906 139.831 38.3906 139.048C38.3906 138.265 38.0795 137.514 37.5257 136.96C36.9719 136.407 36.2207 136.096 35.4375 136.096Z" fill="#EFF2F1"/>
<path d="M47.25 136.096H44.2969C43.5137 136.096 42.7625 136.407 42.2087 136.96C41.6549 137.514 41.3438 138.265 41.3438 139.048C41.3438 139.831 41.6549 140.582 42.2087 141.135C42.7625 141.689 43.5137 142 44.2969 142H47.25C48.0332 142 48.7844 141.689 49.3382 141.135C49.892 140.582 50.2031 139.831 50.2031 139.048C50.2031 138.265 49.892 137.514 49.3382 136.96C48.7844 136.407 48.0332 136.096 47.25 136.096Z" fill="#EFF2F1"/>
<path d="M59.0625 115.43H129.938C133.069 115.427 136.072 114.182 138.286 111.968C140.501 109.754 141.746 106.752 141.75 103.622V82.9561C141.746 79.8252 140.501 76.8237 138.286 74.6098C136.072 72.396 133.069 71.1507 129.938 71.1472H59.0625C55.9307 71.1507 52.9282 72.396 50.7137 74.6098C48.4992 76.8237 47.2535 79.8252 47.25 82.9561V103.622C47.2535 106.752 48.4992 109.754 50.7137 111.968C52.9282 114.182 55.9307 115.427 59.0625 115.43ZM53.1562 82.9561C53.1581 81.3907 53.781 79.8899 54.8882 78.7831C55.9954 77.6762 57.4966 77.0535 59.0625 77.0516H129.938C131.503 77.0535 133.005 77.6762 134.112 78.7831C135.219 79.8899 135.842 81.3907 135.844 82.9561V103.622C135.842 105.187 135.219 106.688 134.112 107.795C133.005 108.901 131.503 109.524 129.938 109.526H59.0625C57.4966 109.524 55.9954 108.901 54.8882 107.795C53.781 106.688 53.1581 105.187 53.1562 103.622V82.9561Z" fill="#EFF2F1"/>
<path d="M62.0156 106.574H73.8281C74.6113 106.574 75.3625 106.263 75.9163 105.709C76.4701 105.155 76.7812 104.405 76.7812 103.622C76.7812 102.839 76.4701 102.088 75.9163 101.534C75.3625 100.98 74.6113 100.669 73.8281 100.669H64.9688V82.9561C64.9688 82.1731 64.6576 81.4222 64.1038 80.8686C63.55 80.3149 62.7988 80.0039 62.0156 80.0039C61.2324 80.0039 60.4813 80.3149 59.9274 80.8686C59.3736 81.4222 59.0625 82.1731 59.0625 82.9561V103.622C59.0625 104.405 59.3736 105.155 59.9274 105.709C60.4813 106.263 61.2324 106.574 62.0156 106.574Z" fill="#EFF2F1"/>
<path d="M82.6875 106.574C83.4707 106.574 84.2219 106.263 84.7757 105.709C85.3295 105.155 85.6406 104.405 85.6406 103.622V82.9561C85.6406 82.1731 85.3295 81.4222 84.7757 80.8686C84.2219 80.3149 83.4707 80.0039 82.6875 80.0039C81.9043 80.0039 81.1531 80.3149 80.5993 80.8686C80.0455 81.4222 79.7344 82.1731 79.7344 82.9561V103.622C79.7344 104.405 80.0455 105.155 80.5993 105.709C81.1531 106.263 81.9043 106.574 82.6875 106.574Z" fill="#EFF2F1"/>
<path d="M115.172 106.574H126.984C127.768 106.574 128.519 106.263 129.073 105.709C129.626 105.155 129.938 104.405 129.938 103.622C129.938 102.839 129.626 102.088 129.073 101.534C128.519 100.98 127.768 100.669 126.984 100.669H118.125V94.765H121.078C121.861 94.765 122.612 94.4539 123.166 93.9003C123.72 93.3466 124.031 92.5957 124.031 91.8127C124.031 91.0298 123.72 90.2789 123.166 89.7252C122.612 89.1716 121.861 88.8605 121.078 88.8605H118.125V85.9083H126.984C127.768 85.9083 128.519 85.5973 129.073 85.0436C129.626 84.49 129.938 83.7391 129.938 82.9561C129.938 82.1731 129.626 81.4222 129.073 80.8686C128.519 80.3149 127.768 80.0039 126.984 80.0039H115.172C114.389 80.0039 113.638 80.3149 113.084 80.8686C112.53 81.4222 112.219 82.1731 112.219 82.9561V103.622C112.219 104.405 112.53 105.155 113.084 105.709C113.638 106.263 114.389 106.574 115.172 106.574Z" fill="#EFF2F1"/>
<path d="M97.5668 104.433C97.7432 105.05 98.1157 105.593 98.628 105.979C99.1403 106.365 99.7646 106.574 100.406 106.574C101.048 106.574 101.672 106.365 102.185 105.979C102.697 105.593 103.069 105.05 103.246 104.433L109.152 83.7679C109.259 83.3951 109.291 83.005 109.247 82.6198C109.202 82.2346 109.083 81.8619 108.895 81.5229C108.706 81.184 108.453 80.8854 108.149 80.6442C107.846 80.4031 107.498 80.2241 107.125 80.1175C106.752 80.0109 106.362 79.9787 105.976 80.0229C105.591 80.067 105.218 80.1866 104.879 80.3748C104.54 80.563 104.241 80.8161 104 81.1197C103.759 81.4233 103.58 81.7714 103.473 82.1442L100.406 92.8755L97.3394 82.1442C97.2328 81.7714 97.0537 81.4233 96.8125 81.1197C96.5713 80.8161 96.2726 80.563 95.9335 80.3748C95.5945 80.1866 95.2216 80.067 94.8363 80.0229C94.451 79.9787 94.0608 80.0109 93.6879 80.1175C93.315 80.2241 92.9668 80.4031 92.6631 80.6442C92.3594 80.8854 92.1062 81.184 91.918 81.5229C91.7297 81.8619 91.6101 82.2346 91.5659 82.6198C91.5218 83.005 91.5539 83.3951 91.6606 83.7679L97.5668 104.433Z" fill="#EFF2F1"/>
</svg>
