<svg width="78" height="78" viewBox="0 0 78 78" fill="none" xmlns="http://www.w3.org/2000/svg">
<path d="M39 0C17.4941 0 0 17.4941 0 39C0 60.5059 17.4941 78 39 78C60.5059 78 78 60.5029 78 39C78 17.4971 60.5059 0 39 0ZM39 71.9582C20.8292 71.9582 6.0418 57.1738 6.0418 39C6.0418 20.8262 20.8292 6.0418 39 6.0418C57.1708 6.0418 71.9582 20.8262 71.9582 39C71.9582 57.1738 57.1738 71.9582 39 71.9582Z" fill="#312829"/>
<path d="M54.1042 35.7072H42.0206V23.6236C42.0206 21.9561 40.6702 20.6027 38.9996 20.6027C37.329 20.6027 35.9786 21.9561 35.9786 23.6236V35.7072H23.895C22.2244 35.7072 20.874 37.0607 20.874 38.7282C20.874 40.3958 22.2244 41.7492 23.895 41.7492H35.9786V53.8328C35.9786 55.5003 37.329 56.8538 38.9996 56.8538C40.6702 56.8538 42.0206 55.5003 42.0206 53.8328V41.7492H54.1042C55.7748 41.7492 57.1251 40.3958 57.1251 38.7282C57.1251 37.0607 55.7748 35.7072 54.1042 35.7072Z" fill="#312829"/>
</svg>
