<svg width="85" height="81" viewBox="0 0 85 81" fill="none" xmlns="http://www.w3.org/2000/svg">
<g filter="url(#filter0_d)">
<path d="M79.8721 69.9616H75.5266C76.5318 68.5887 76.9459 66.8475 76.6257 65.1191C76.4524 64.1868 76.0759 63.3297 75.5442 62.5919C76.4971 62.3722 77.41 61.9404 78.2101 61.3C78.6631 60.9376 78.928 60.3965 78.9374 59.8167C78.9468 59.2363 78.6995 58.687 78.2583 58.3099L67.8185 49.3845C67.0501 48.7271 66.4738 47.8736 66.1525 46.9148L63.7133 39.6315C63.7127 39.6291 63.7115 39.6268 63.711 39.6244L61.5144 33.0677C60.5187 30.0946 58.1383 27.7588 55.1469 26.8195L47.5827 24.4438C49.6365 22.9957 50.9818 20.6065 50.9818 17.9076V12.6575C50.9818 8.24857 47.3947 4.66211 42.9864 4.66211C38.5781 4.66211 34.991 8.24857 34.991 12.6575V17.9082C34.991 20.4825 36.2153 22.7754 38.1111 24.2382C37.9148 24.2922 37.7192 24.3492 37.5242 24.4103L29.8531 26.8195C26.8617 27.7588 24.4813 30.0946 23.4856 33.0677L18.847 46.9148C18.5256 47.8736 17.9499 48.7277 17.1815 49.3845L6.74169 58.3104C6.30051 58.6876 6.05318 59.2363 6.06258 59.8167C6.07198 60.3971 6.33693 60.9376 6.78986 61.3C7.62641 61.9697 8.58574 62.4115 9.5856 62.6207C8.64155 64.3578 8.46237 66.4762 9.19024 68.3966C9.41113 68.9776 9.70192 69.501 10.052 69.9622H5.12793C4.50463 69.9622 4 70.4668 4 71.0901C4 71.7128 4.50463 72.218 5.12793 72.218H72.6369H72.638H72.6392H79.8721C80.4954 72.218 81 71.7128 81 71.0901C81 70.4668 80.4948 69.9616 79.8721 69.9616ZM54.2029 43.6491L58.1864 53.5614C58.2088 53.6166 58.2352 53.6701 58.2658 53.7212C58.9707 54.8949 59.9747 55.8672 61.1702 56.534L62.4908 57.27L54.2029 54.7393V43.6491ZM66.3522 51.0993L76.49 59.7662C75.1307 60.6744 73.3806 60.7549 71.9325 59.9501L62.2687 54.5636C61.4422 54.103 60.7437 53.4363 60.2443 52.6332L56.6937 43.7977L61.9597 41.499L64.0135 47.6309C64.4647 48.9774 65.2736 50.1764 66.3522 51.0993ZM37.2469 17.9082V12.6575C37.2469 9.49282 39.8218 6.91797 42.9864 6.91797C46.1511 6.91797 48.7259 9.49282 48.7259 12.6575V17.9082C48.7259 21.0729 46.1511 23.6478 42.9864 23.6478C39.8218 23.6478 37.2469 21.0729 37.2469 17.9082ZM30.5287 28.9713L38.2004 26.5627C41.0131 25.6792 43.9869 25.6792 46.7996 26.5627L54.4713 28.9713C56.7754 29.6951 58.6088 31.4939 59.3755 33.7844L61.2407 39.3518L55.8519 41.7034L54.1212 37.3973C53.9197 36.8962 53.3916 36.6078 52.8605 36.7106C52.33 36.8134 51.947 37.2781 51.947 37.818V54.4461H33.053V37.818C33.053 37.2781 32.67 36.8134 32.1395 36.7106C31.6102 36.6078 31.0803 36.8962 30.8788 37.3973L29.3808 41.1242L24.0578 38.4624L25.6245 33.7844C26.3912 31.4939 28.2246 29.6951 30.5287 28.9713ZM18.6472 51.0993C19.7264 50.1764 20.5353 48.9774 20.9859 47.6309L23.3334 40.6225L28.5366 43.2244L27.7165 45.2646C27.4844 45.8427 27.7647 46.4995 28.3427 46.7321C28.9202 46.9642 29.5776 46.684 29.8096 46.1059L30.7971 43.6497V54.7357L22.6719 57.1796L23.8292 56.534C25.0247 55.8678 26.0293 54.8955 26.7342 53.7218C26.7648 53.6707 26.7912 53.6172 26.8136 53.5614L27.6566 51.463C27.8892 50.8849 27.609 50.2281 27.0309 49.9961C26.4529 49.7634 25.7961 50.0437 25.5634 50.6217L24.7551 52.6332C24.2557 53.4368 23.5578 54.103 22.7313 54.5636L13.0687 59.9495C11.6194 60.7549 9.86993 60.6744 8.50996 59.7662L18.6472 51.0993ZM14.78 69.9616H14.7758C13.1368 69.9616 11.8702 69.0998 11.2998 67.5965C10.6548 65.8952 11.0966 63.8896 12.3696 62.633L32.0907 56.702H52.9069L71.6294 62.4192C73.0904 62.865 74.129 64.0282 74.4075 65.5304C74.6859 67.0325 74.1337 68.4906 72.9294 69.4305L72.2497 69.9622H48.4304C48.2848 69.1715 47.9334 68.1199 47.1022 67.1841L49.3492 67.0601C49.9714 67.026 50.4478 66.4938 50.4131 65.8717C50.3791 65.2501 49.8468 64.7743 49.2253 64.8078L43.1121 65.1456C42.8537 65.0992 42.584 65.0604 42.3008 65.0316L24.9043 63.2146C24.2804 63.1494 23.73 63.6 23.6653 64.2191C23.6007 64.8389 24.0507 65.3935 24.6699 65.4581L42.0676 67.2751C42.3308 67.3022 42.5781 67.3392 42.8096 67.3838C42.8143 67.385 42.8196 67.3856 42.8243 67.3867C45.076 67.8285 45.8679 69.054 46.1411 69.9616H14.78Z" fill="#EFF2F1"/>
<path d="M55.1352 66.7387C55.1557 66.7387 55.1769 66.7387 55.198 66.7376L62.8051 66.3175C63.4266 66.2829 63.9031 65.7512 63.869 65.1291C63.8349 64.507 63.3021 64.0299 62.6806 64.0652L55.0741 64.4852C54.452 64.5193 53.9755 65.0515 54.0096 65.6731C54.0431 66.274 54.5401 66.7387 55.1352 66.7387Z" fill="#EFF2F1"/>
</g>
<defs>
<filter id="filter0_d" x="0" y="0" width="85" height="85" filterUnits="userSpaceOnUse" color-interpolation-filters="sRGB">
<feFlood flood-opacity="0" result="BackgroundImageFix"/>
<feColorMatrix in="SourceAlpha" type="matrix" values="0 0 0 0 0 0 0 0 0 0 0 0 0 0 0 0 0 0 127 0"/>
<feOffset dy="4"/>
<feGaussianBlur stdDeviation="2"/>
<feColorMatrix type="matrix" values="0 0 0 0 0 0 0 0 0 0 0 0 0 0 0 0 0 0 0.25 0"/>
<feBlend mode="normal" in2="BackgroundImageFix" result="effect1_dropShadow"/>
<feBlend mode="normal" in="SourceGraphic" in2="effect1_dropShadow" result="shape"/>
</filter>
</defs>
</svg>
