<svg width="15" height="15" viewBox="0 0 15 15" fill="none" xmlns="http://www.w3.org/2000/svg">
<path d="M5.07424 12.4695H9.92582C11.3284 12.4695 12.4695 11.3284 12.4695 9.92572V5.07418C12.4695 3.67153 11.3284 2.5304 9.92579 2.5304H5.07424C3.67159 2.5304 2.53046 3.67153 2.53046 5.07418V9.92572C2.53046 11.3284 3.67159 12.4695 5.07424 12.4695ZM2.82926 5.07421C2.82926 3.83632 3.83635 2.82923 5.07424 2.82923V2.8292H9.92579C11.1637 2.8292 12.1707 3.83629 12.1707 5.07418V9.92575C12.1707 11.1636 11.1637 12.1707 9.92579 12.1707H5.07424C3.83635 12.1707 2.82926 11.1636 2.82926 9.92575V5.07421Z" fill="#312829"/>
<path d="M10.4871 5.16927C10.849 5.16927 11.1435 4.87483 11.1435 4.51286C11.1435 4.15089 10.8491 3.85645 10.4871 3.85645C10.1251 3.85645 9.83069 4.15089 9.83069 4.51286C9.83069 4.87483 10.1251 5.16927 10.4871 5.16927ZM10.4871 4.15525C10.6843 4.15525 10.8447 4.31568 10.8447 4.51286C10.8447 4.71004 10.6843 4.87047 10.4871 4.87047C10.2899 4.87047 10.1295 4.71004 10.1295 4.51286C10.1295 4.31568 10.2899 4.15525 10.4871 4.15525Z" fill="#312829"/>
<path d="M5.23904 11.3844C5.32157 11.3844 5.38844 11.3175 5.38844 11.235C5.38844 11.1525 5.32154 11.0856 5.23904 11.0856C4.50861 11.0856 3.91434 10.4913 3.91434 9.76089V7.05175C3.91434 6.96925 3.84744 6.90234 3.76494 6.90234C3.68244 6.90234 3.61554 6.96925 3.61554 7.05175V9.76092C3.61554 10.6561 4.34385 11.3844 5.23904 11.3844Z" fill="#312829"/>
<path d="M3.76494 5.97606C3.84744 5.97606 3.91434 5.90916 3.91434 5.82666V5.239C3.91434 5.1565 3.84744 5.0896 3.76494 5.0896C3.68244 5.0896 3.61554 5.1565 3.61554 5.239V5.82666C3.61554 5.90916 3.68244 5.97606 3.76494 5.97606Z" fill="#DB4B1A"/>
<path d="M9.79846 6.48488C9.82317 6.54061 9.87782 6.57374 9.9351 6.57374C9.95533 6.57374 9.97589 6.56962 9.99561 6.56087C10.071 6.52743 10.1051 6.43913 10.0716 6.36371C9.96576 6.12509 9.82696 5.90212 9.65909 5.70099C9.6062 5.63768 9.51202 5.62916 9.44864 5.68205C9.3853 5.73491 9.37678 5.82912 9.42967 5.89247C9.57979 6.07229 9.70385 6.27162 9.79846 6.48488Z" fill="#DB4B1A"/>
<path d="M7.49998 5.95483C6.64797 5.95483 5.95477 6.64803 5.95477 7.50005C5.95477 8.35206 6.64794 9.04526 7.49998 9.04526C8.35202 9.04526 9.04521 8.35206 9.04521 7.50005C9.04521 6.64803 8.35199 5.95483 7.49998 5.95483ZM7.49998 8.74645C6.8127 8.74645 6.25358 8.18733 6.25358 7.50005C6.25358 6.81276 6.8127 6.25364 7.49998 6.25364C8.18726 6.25364 8.74641 6.81276 8.74641 7.50005C8.74641 8.18733 8.18726 8.74645 7.49998 8.74645Z" fill="#312829"/>
<path d="M7.49999 10.3115C9.05027 10.3115 10.3115 9.05024 10.3115 7.49999C10.3115 7.41749 10.2447 7.35058 10.1621 7.35058C10.0796 7.35058 10.0127 7.41749 10.0127 7.49999C10.0127 8.88548 8.88551 10.0127 7.50002 10.0127C6.11452 10.0127 4.98731 8.88548 4.98731 7.49999C4.98731 6.11449 6.11452 4.98728 7.50002 4.98728C7.87454 4.98728 8.23505 5.06808 8.57153 5.2274C8.64608 5.26269 8.73516 5.2309 8.77047 5.15631C8.80582 5.08173 8.77397 4.99266 8.69939 4.95734C8.3226 4.77892 7.91906 4.68848 7.49999 4.68848C5.9497 4.68848 4.68848 5.9497 4.68848 7.49999C4.68848 9.05027 5.94973 10.3115 7.49999 10.3115Z" fill="#312829"/>
</svg>
