<svg width="15" height="15" viewBox="0 0 15 15" fill="none" xmlns="http://www.w3.org/2000/svg">
<path d="M1.678 5.97605C2.35276 7.32731 2.95079 8.30918 3.6171 9.15967C4.16295 9.8566 4.74613 10.3656 5.39995 10.7158C6.15909 11.1225 7.01537 11.2845 8.09481 11.226C8.4794 11.2049 8.72445 10.9741 8.75032 10.6091C8.75514 10.547 8.83623 9.9434 8.92136 9.72859C8.94449 9.67036 8.9859 9.59712 9.05176 9.57886C9.11077 9.56249 9.19011 9.58914 9.27524 9.65404C9.35992 9.7184 9.44648 9.79717 9.53983 9.89485C9.64303 10.0029 9.74642 10.1152 9.84643 10.2239C10.0281 10.4214 10.2161 10.6256 10.414 10.8162C10.7153 11.1061 11.0854 11.2541 11.5142 11.256C11.5248 11.256 11.5636 11.2569 11.6232 11.2583C11.9705 11.2662 12.3899 11.2745 12.7343 11.2745C13.0088 11.2745 13.2357 11.2693 13.3404 11.2544C13.6128 11.2157 13.8138 11.0841 13.9064 10.8836C14.0011 10.6786 13.9695 10.4334 13.8173 10.1931C13.6216 9.88418 13.388 9.58033 13.123 9.28992C12.9177 9.06534 12.6975 8.85046 12.4846 8.64268C12.3379 8.49955 12.1862 8.35152 12.042 8.20278C11.8699 8.02505 11.8603 7.94353 11.9846 7.71868C12.0314 7.63466 12.073 7.56859 12.1154 7.51077C12.1642 7.44423 12.1498 7.35073 12.0833 7.30194C12.0168 7.25314 11.9233 7.26749 11.8744 7.33406C11.8245 7.4021 11.7766 7.47805 11.7233 7.57364C11.5361 7.91222 11.5643 8.13907 11.8274 8.41071C11.9746 8.56251 12.1277 8.71197 12.2759 8.85653C12.4858 9.06139 12.7029 9.27324 12.9024 9.49143C13.1555 9.7689 13.3785 10.0588 13.5649 10.353C13.6609 10.5046 13.6858 10.6486 13.6352 10.7583C13.5866 10.8635 13.467 10.9347 13.2986 10.9586C13.1399 10.9809 12.5785 10.9812 11.63 10.9595C11.5673 10.9581 11.5265 10.9571 11.5155 10.9571C11.1661 10.9555 10.8652 10.8357 10.6212 10.6009C10.4298 10.4166 10.2449 10.2158 10.0663 10.0215C9.96535 9.91185 9.86098 9.79845 9.75583 9.68837C9.65143 9.57916 9.55336 9.49009 9.45616 9.41622C9.29514 9.29347 9.12314 9.24895 8.97186 9.29087C8.87029 9.31902 8.7309 9.39865 8.64356 9.6183C8.53728 9.88666 8.45531 10.5463 8.45227 10.5875C8.43715 10.8004 8.31138 10.9148 8.07846 10.9275C7.05622 10.9831 6.24984 10.8321 5.54098 10.4524C4.92443 10.1221 4.37206 9.63898 3.85226 8.97537C3.19886 8.14131 2.61072 7.1751 1.94528 5.84246C1.91236 5.77657 1.3939 4.67156 1.3521 4.56297C1.32906 4.47193 1.33154 4.35728 1.41054 4.31903C1.60154 4.29324 3.20717 4.32226 3.33081 4.32689C3.58178 4.34042 3.72335 4.44256 3.81939 4.67936C4.20658 5.63535 4.66734 6.44132 5.22786 7.14309C5.31048 7.24699 5.4185 7.34601 5.54017 7.42944C5.65581 7.50868 5.77943 7.53285 5.88834 7.49742C5.994 7.46308 6.07662 7.37538 6.12081 7.25087C6.19366 7.04757 6.25432 6.66028 6.2579 6.46295C6.26773 5.96057 6.25659 5.63264 6.22952 5.1293C6.20412 4.66182 5.97042 4.39334 5.51528 4.30875C5.51944 4.30125 5.5252 4.29226 5.53318 4.28204C5.67801 4.09696 5.87209 4.05297 6.17968 4.03657C6.52614 4.01783 6.88199 4.0245 7.22615 4.03095C7.34917 4.03325 7.47219 4.03555 7.59526 4.03678C7.80141 4.03863 7.9806 4.05677 8.14321 4.09227C8.31631 4.12995 8.41668 4.2443 8.44997 4.44208C8.47055 4.56357 8.4797 4.68199 8.47704 4.79413C8.47202 5.01683 8.46449 5.24359 8.45726 5.46291C8.44677 5.77863 8.43598 6.10511 8.43225 6.42695C8.42935 6.67322 8.45024 6.89993 8.49437 7.1009C8.55485 7.37461 8.7047 7.45523 8.78869 7.47889C8.8691 7.50154 9.0309 7.51182 9.21066 7.32542C9.43665 7.0908 9.65516 6.81728 9.91928 6.43854C10.2635 5.94483 10.5611 5.36828 10.8558 4.62426C10.9621 4.35644 11.0067 4.32569 11.2903 4.32507C12.0461 4.32324 12.6675 4.32324 13.2461 4.32507C13.3675 4.32557 13.466 4.33839 13.5471 4.36412C13.6136 4.38536 13.6857 4.4283 13.6529 4.57325C13.6347 4.65372 13.6851 4.73377 13.7656 4.752C13.846 4.77017 13.9261 4.71979 13.9443 4.63932C14.0036 4.3776 13.8834 4.15785 13.6378 4.07942C13.5272 4.04431 13.3995 4.02692 13.2472 4.02629C12.6679 4.02444 12.0459 4.02444 11.2896 4.02629C10.8826 4.02719 10.7297 4.13204 10.578 4.51415C10.292 5.23624 10.0048 5.79345 9.67417 6.26769C9.41944 6.633 9.2101 6.89529 8.99549 7.11811C8.93047 7.18552 8.88589 7.19577 8.86979 7.19132C8.85156 7.18618 8.81059 7.14722 8.78618 7.03666C8.74695 6.85803 8.72842 6.6541 8.73105 6.43047C8.73473 6.11186 8.74548 5.787 8.75588 5.47283C8.76317 5.25276 8.7707 5.02519 8.77578 4.80109C8.77883 4.67001 8.76834 4.53244 8.74459 4.39236C8.69104 4.0744 8.50005 3.86416 8.20683 3.80039C8.02405 3.76047 7.82487 3.7401 7.5981 3.73806C7.47604 3.73684 7.35389 3.73457 7.23174 3.73227C6.88226 3.72575 6.52082 3.71897 6.16363 3.73827C5.86862 3.75402 5.53405 3.79609 5.29781 4.09803C5.21277 4.2068 5.186 4.3268 5.22431 4.42729C5.24457 4.48047 5.30143 4.57382 5.45424 4.6014C5.82918 4.6689 5.91607 4.86778 5.93116 5.14549C5.95784 5.64133 5.96881 5.9641 5.95919 6.4574C5.95608 6.62757 5.90026 6.98066 5.8394 7.15059C5.82503 7.19114 5.80755 7.20961 5.79598 7.21337C5.7826 7.21774 5.75188 7.21239 5.70918 7.1831C5.61168 7.11626 5.52613 7.03812 5.46156 6.95694C4.91911 6.27781 4.47257 5.49614 4.09635 4.56722C3.95732 4.22449 3.71221 4.04831 3.34656 4.02859C3.32875 4.02766 1.46253 3.97776 1.31065 4.03699C1.08987 4.12286 0.990991 4.36702 1.06474 4.64503C1.08625 4.72517 1.67248 5.965 1.678 5.97605Z" fill="#312829"/>
<path d="M13.0741 5.59497C12.9703 5.75402 12.8559 5.92616 12.7241 6.12122C12.6786 6.18854 12.6963 6.28001 12.7636 6.32549C12.7906 6.34368 12.8213 6.35178 12.8515 6.35062C12.8968 6.34888 12.9406 6.32632 12.9679 6.28596C13.1006 6.08958 13.2159 5.91612 13.3206 5.75573C13.365 5.68766 13.3458 5.59649 13.2777 5.55212C13.2097 5.50772 13.1185 5.5269 13.0741 5.59497Z" fill="#DB4B1A"/>
</svg>
