<svg width="77" height="77" viewBox="0 0 77 77" fill="none" xmlns="http://www.w3.org/2000/svg">
<g clip-path="url(#clip0)">
<path d="M72.4883 30.9805H70.9844V24.2129C70.9844 20.8955 68.285 18.1973 64.9688 18.1973C63.8091 18.1973 62.7246 18.5268 61.8058 19.0978C61.1908 16.4302 58.7951 14.4375 55.9453 14.4375H55.9436C52.6279 14.4375 49.9279 17.1357 49.9279 20.4531V30.9805H27.0721V20.4531C27.0721 17.1357 24.3721 14.4375 21.0547 14.4375C18.2049 14.4375 15.8092 16.4302 15.1942 19.0978C14.2754 18.5268 13.1909 18.1973 12.0312 18.1973C8.71502 18.1973 6.01562 20.8955 6.01562 24.2129V30.9805H4.51172C2.0244 30.9805 0 33.0049 0 35.4922V41.5078C0 43.9951 2.0244 46.0195 4.51172 46.0195H6.01562V52.7871C6.01562 56.1045 8.71502 58.8027 12.0312 58.8027C13.1909 58.8027 14.2754 58.4732 15.1942 57.9022C15.8092 60.5698 18.2049 62.5625 21.0547 62.5625H21.0564C24.3721 62.5625 27.0721 59.8643 27.0721 56.5469V46.0195H49.9279V56.5469C49.9279 59.8643 52.6279 62.5625 55.9453 62.5625C58.7951 62.5625 61.1908 60.5698 61.8058 57.9022C62.7246 58.4732 63.8091 58.8027 64.9688 58.8027C68.285 58.8027 70.9844 56.1045 70.9844 52.7871V46.0195H72.4883C74.9756 46.0195 77 43.9951 77 41.5078V35.4922C77 33.0049 74.9756 30.9805 72.4883 30.9805ZM6.01562 43.0117H4.51172C3.68281 43.0117 3.00781 42.3367 3.00781 41.5078V35.4922C3.00781 34.6633 3.68281 33.9883 4.51172 33.9883H6.01562V43.0117ZM15.0391 52.7871C15.0391 53.6172 14.7024 54.3691 14.1579 54.9137C13.6133 55.4583 12.8613 55.7949 12.0312 55.7949C10.3723 55.7949 9.02344 54.4461 9.02344 52.7871V24.2129C9.02344 22.5539 10.3723 21.2051 12.0312 21.2051C13.6902 21.2051 15.0391 22.5539 15.0391 24.2129V52.7871ZM24.0643 56.5469C24.0643 58.2059 22.7137 59.5547 21.0564 59.5547H21.0547C19.3975 59.5547 18.0469 58.2059 18.0469 56.5469V20.4531C18.0469 18.7941 19.3975 17.4453 21.0564 17.4453C22.7137 17.4453 24.0643 18.7941 24.0643 20.4531V56.5469ZM49.9191 36.9961H39.4023C38.5723 36.9961 37.8984 37.6699 37.8984 38.5C37.8984 39.3301 38.5723 40.0039 39.4023 40.0039H49.9191V43.0117H27.0644V33.9883H49.9191V36.9961ZM58.9531 56.5469C58.9531 58.2059 57.6025 59.5547 55.9436 59.5547C54.2863 59.5547 52.9357 58.2059 52.9357 56.5469V38.577C52.9346 38.6099 52.9316 38.6428 52.9269 38.6745V38.3255C52.9316 38.3572 52.9346 38.3901 52.9357 38.423V20.4531C52.9357 18.7941 54.2863 17.4453 55.9436 17.4453H55.9453C57.6025 17.4453 58.9531 18.7941 58.9531 20.4531V56.5469ZM67.9766 52.7871C67.9766 54.4461 66.6277 55.7949 64.9688 55.7949C63.3098 55.7949 61.9609 54.4461 61.9609 52.7871V24.2129C61.9609 22.5539 63.3098 21.2051 64.9688 21.2051C66.6277 21.2051 67.9766 22.5539 67.9766 24.2129V52.7871ZM73.9922 41.5078C73.9922 42.3367 73.3172 43.0117 72.4883 43.0117H70.9844V33.9883H72.4883C73.3172 33.9883 73.9922 34.6633 73.9922 35.4922V41.5078Z" fill="#EFF2F1"/>
<path d="M33.3897 40.0039C32.559 40.0039 31.8852 39.3307 31.8852 38.5C31.8852 37.6693 32.5578 36.9961 33.3885 36.9961H33.3897C34.2203 36.9961 34.8936 37.6693 34.8936 38.5C34.8936 39.3307 34.2203 40.0039 33.3897 40.0039Z" fill="#EFF2F1"/>
</g>
<defs>
<clipPath id="clip0">
<rect width="77" height="77" fill="white"/>
</clipPath>
</defs>
</svg>
