<svg width="15" height="16" viewBox="0 0 15 16" fill="none" xmlns="http://www.w3.org/2000/svg">
<path d="M8.27703 10.2507C8.30523 10.2507 8.33377 10.2427 8.35908 10.226C9.70292 9.3409 10.6098 7.92519 10.847 6.34193C10.8593 6.26035 10.803 6.1843 10.7214 6.17208C10.64 6.15986 10.5638 6.21608 10.5515 6.29766C10.3268 7.79713 9.46776 9.13805 8.19467 9.97659C8.1258 10.022 8.10674 10.1146 8.15213 10.1835C8.18084 10.2271 8.22847 10.2507 8.27703 10.2507Z" fill="#EFF2F1"/>
<path d="M5.82651 11.1272C5.83168 11.1272 5.83691 11.1269 5.84217 11.1263C6.27113 11.0816 6.69454 10.9875 7.10064 10.8469C7.17863 10.8199 7.21996 10.7348 7.19298 10.6568C7.16602 10.5788 7.08095 10.5374 7.00293 10.5644C6.6184 10.6976 6.21744 10.7866 5.81121 10.829C5.72913 10.8376 5.66955 10.911 5.67809 10.9932C5.6861 11.07 5.75094 11.1272 5.82651 11.1272Z" fill="#DB4B1A"/>
<path d="M5.01709 5.50621C5.03738 5.51556 5.05865 5.51999 5.07963 5.51999C5.13607 5.51999 5.19013 5.48779 5.21534 5.43311C5.24992 5.35816 5.21723 5.26934 5.14232 5.23475C4.86768 5.10794 4.60244 4.96237 4.35395 4.80216C4.28454 4.75744 4.19212 4.77747 4.14741 4.84686C4.10274 4.91628 4.12273 5.00877 4.19209 5.0535C4.45229 5.22124 4.72985 5.37356 5.01709 5.50621Z" fill="#DB4B1A"/>
<path d="M7.21808 5.4834C7.21808 5.59706 7.22621 5.71045 7.24232 5.82229C7.03387 5.80093 6.67121 5.74958 6.22444 5.62809C6.14481 5.60635 6.06273 5.65339 6.04106 5.733C6.0194 5.81258 6.06637 5.89466 6.146 5.91632C6.8499 6.10774 7.36282 6.13316 7.419 6.13543C7.46517 6.1371 7.5104 6.11732 7.54014 6.08139C7.56987 6.04545 7.5811 5.99772 7.57052 5.95229C7.53497 5.7997 7.51692 5.64195 7.51692 5.4834C7.51692 4.34229 8.44611 3.41395 9.58826 3.41395C10.1673 3.41395 10.7043 3.64661 11.1002 4.06914C11.1383 4.1098 11.1959 4.1259 11.2496 4.11084C11.3562 4.08097 11.4649 4.04755 11.5819 4.00859C11.8925 3.90506 12.1586 3.79507 12.3515 3.70869C12.1218 4.13271 11.6466 4.4687 11.5708 4.52059C11.5088 4.54926 11.4783 4.61504 11.4917 4.68288C11.5055 4.75287 11.5716 4.8012 11.643 4.8012C11.6476 4.8012 11.6524 4.80099 11.6574 4.80054C11.6589 4.80042 11.6604 4.8003 11.6618 4.80015C11.9613 4.77025 12.2607 4.69638 12.4966 4.6254C12.2556 4.88603 11.9255 5.1682 11.711 5.33703C11.6733 5.36663 11.6522 5.41251 11.6541 5.4604C11.6575 5.54427 11.6592 5.6298 11.6592 5.71454C11.6592 9.12055 8.88727 11.8916 5.48018 11.8916C4.52481 11.8916 3.59065 11.6727 2.74429 11.2544C4.33952 11.2316 5.40688 10.2863 5.45729 10.2408C5.5016 10.2008 5.51783 10.1382 5.49855 10.0817C5.47928 10.0252 5.42824 9.98565 5.36872 9.98102C4.17326 9.88812 3.69999 9.13486 3.53654 8.75735C4.02897 8.7963 4.3339 8.68383 4.34854 8.67831C4.41001 8.65504 4.44906 8.59434 4.44473 8.52877C4.4404 8.4632 4.39369 8.40815 4.32969 8.39318C2.95043 8.07049 2.7217 7.04294 2.69033 6.57854C3.09213 6.75203 3.47484 6.76938 3.49384 6.77013C3.55674 6.77255 3.61501 6.73509 3.63849 6.67636C3.66198 6.61764 3.64596 6.55049 3.59845 6.50873C2.33875 5.4011 2.68474 4.33966 2.88897 3.93819C3.02059 4.08686 3.15978 4.2297 3.30443 4.36454C3.36479 4.42082 3.45933 4.4175 3.51556 4.35716C3.57183 4.29682 3.56854 4.20231 3.50818 4.14606C3.3217 3.97227 3.14484 3.78444 2.98241 3.58783C2.95306 3.55231 2.90854 3.53212 2.86289 3.53364C2.81681 3.53496 2.77393 3.55748 2.74668 3.59467C2.73485 3.6108 2.45651 3.9965 2.39959 4.57884C2.35465 5.0387 2.44531 5.70029 3.05765 6.39226C2.91858 6.35283 2.76347 6.29413 2.61736 6.20685C2.57331 6.18053 2.51884 6.17865 2.47309 6.20186C2.42735 6.2251 2.39672 6.27015 2.39197 6.32123C2.39018 6.34061 2.35026 6.80191 2.56029 7.32424C2.71097 7.69898 3.0165 8.16037 3.63494 8.46413C3.54506 8.45998 3.44675 8.45018 3.34106 8.43229C3.29164 8.42392 3.24135 8.44089 3.20711 8.47745C3.17287 8.51401 3.15924 8.5653 3.1708 8.61405C3.17454 8.62985 3.26636 9.00572 3.58097 9.39844C3.83042 9.70985 4.26652 10.084 4.97917 10.2283C4.50192 10.5507 3.44833 11.1122 2.11847 10.9138C2.03956 10.902 1.96578 10.9542 1.95022 11.0324C1.93761 11.0957 1.96725 11.158 2.02008 11.1897C3.05394 11.8443 4.25033 12.1902 5.48024 12.1902C9.05209 12.1902 11.958 9.28526 11.958 5.71457C11.958 5.6513 11.957 5.58762 11.9552 5.52441C12.193 5.33308 12.8526 4.7799 13.0383 4.3899C13.0649 4.3341 13.0542 4.26767 13.0117 4.22286C12.9691 4.17805 12.9032 4.16413 12.8461 4.18779C12.8419 4.18952 12.553 4.30829 12.182 4.40227C12.4295 4.1604 12.6965 3.82142 12.7598 3.44224C12.7692 3.38614 12.7458 3.32959 12.6996 3.2964C12.6534 3.26319 12.5923 3.25915 12.5421 3.28589C12.5377 3.28825 12.0955 3.5225 11.4875 3.72521C11.406 3.75227 11.3289 3.77658 11.2537 3.79878C10.8121 3.36329 10.2103 3.11523 9.58823 3.11523C8.28132 3.11523 7.21808 4.17761 7.21808 5.4834Z" fill="#EFF2F1"/>
</svg>
