<svg width="15" height="14" viewBox="0 0 15 14" fill="none" xmlns="http://www.w3.org/2000/svg">
<path d="M8.27706 9.5896C8.30526 9.5896 8.3338 9.58252 8.35911 9.56773C9.70295 8.78249 10.6098 7.52657 10.8471 6.12201C10.8593 6.04963 10.8031 5.98217 10.7215 5.97133C10.6401 5.96049 10.5638 6.01036 10.5516 6.08273C10.3268 7.41296 9.46779 8.60254 8.19471 9.34643C8.12583 9.38669 8.10677 9.46886 8.15216 9.52997C8.18087 9.56863 8.2285 9.5896 8.27706 9.5896Z" fill="#312829"/>
<path d="M5.82648 10.3664C5.83165 10.3664 5.83688 10.3661 5.84214 10.3656C6.2711 10.326 6.69451 10.2426 7.10061 10.118C7.1786 10.094 7.21993 10.0186 7.19294 9.94942C7.16599 9.88028 7.08092 9.84364 7.0029 9.86754C6.61837 9.98557 6.21741 10.0645 5.81118 10.1021C5.7291 10.1097 5.66952 10.1748 5.67806 10.2476C5.68607 10.3157 5.75091 10.3664 5.82648 10.3664Z" fill="#DB4B1A"/>
<path d="M5.01709 5.37995C5.03738 5.38824 5.05865 5.39216 5.07963 5.39216C5.13607 5.39216 5.19013 5.36362 5.21534 5.31515C5.24992 5.24872 5.21723 5.16999 5.14232 5.13933C4.86768 5.02692 4.60244 4.89789 4.35395 4.75588C4.28454 4.71623 4.19212 4.73399 4.14741 4.79549C4.10274 4.85703 4.12273 4.93902 4.19209 4.97866C4.45229 5.12735 4.72985 5.26237 5.01709 5.37995Z" fill="#DB4B1A"/>
<path d="M7.21808 5.3593C7.21808 5.46013 7.22621 5.56072 7.24232 5.65993C7.03387 5.64099 6.67121 5.59543 6.22444 5.48766C6.14481 5.46837 6.06273 5.51011 6.04106 5.58073C6.0194 5.65132 6.06637 5.72414 6.146 5.74336C6.8499 5.91317 7.36282 5.93572 7.419 5.93773C7.46517 5.93922 7.5104 5.92167 7.54014 5.88979C7.56987 5.85791 7.5811 5.81557 7.57052 5.77526C7.53497 5.6399 7.51692 5.49996 7.51692 5.3593C7.51692 4.34698 8.44611 3.52342 9.58826 3.52342C10.1673 3.52342 10.7043 3.72983 11.1002 4.10467C11.1383 4.14073 11.1959 4.15501 11.2496 4.14166C11.3562 4.11516 11.4649 4.08551 11.5819 4.05095C11.8925 3.9591 12.1586 3.86153 12.3515 3.78489C12.1218 4.16106 11.6466 4.45913 11.5708 4.50516C11.5088 4.5306 11.4783 4.58895 11.4917 4.64913C11.5055 4.71122 11.5716 4.75409 11.643 4.75409C11.6476 4.75409 11.6524 4.75391 11.6574 4.75351C11.6589 4.75341 11.6604 4.7533 11.6618 4.75317C11.9613 4.72664 12.2607 4.66111 12.4966 4.59814C12.2556 4.82935 11.9255 5.07967 11.711 5.22945C11.6733 5.25571 11.6522 5.29641 11.6541 5.33889C11.6575 5.4133 11.6592 5.48917 11.6592 5.56435C11.6592 8.58593 8.88727 11.0442 5.48018 11.0442C4.52481 11.0442 3.59065 10.85 2.74429 10.4789C4.33952 10.4587 5.40688 9.62008 5.45729 9.57972C5.5016 9.54421 5.51783 9.48875 5.49855 9.43864C5.47928 9.3885 5.42824 9.35339 5.36872 9.34928C4.17326 9.26687 3.69999 8.59862 3.53654 8.26372C4.02897 8.29827 4.3339 8.1985 4.34854 8.1936C4.41001 8.17296 4.44906 8.11911 4.44473 8.06094C4.4404 8.00278 4.39369 7.95394 4.32969 7.94066C2.95043 7.65438 2.7217 6.74282 2.69033 6.33083C3.09213 6.48474 3.47484 6.50013 3.49384 6.5008C3.55674 6.50294 3.61501 6.46971 3.63849 6.41761C3.66198 6.36552 3.64596 6.30594 3.59845 6.2689C2.33875 5.28629 2.68474 4.34465 2.88897 3.98849C3.02059 4.12038 3.15978 4.2471 3.30443 4.36672C3.36479 4.41665 3.45933 4.41371 3.51556 4.36018C3.57183 4.30665 3.56854 4.2228 3.50818 4.1729C3.3217 4.01873 3.14484 3.8521 2.98241 3.67768C2.95306 3.64617 2.90854 3.62825 2.86289 3.6296C2.81681 3.63077 2.77393 3.65075 2.74668 3.68374C2.73485 3.69805 2.45651 4.04022 2.39959 4.55683C2.35465 4.96479 2.44531 5.55171 3.05765 6.16558C2.91858 6.1306 2.76347 6.07852 2.61736 6.00109C2.57331 5.97775 2.51884 5.97608 2.47309 5.99667C2.42735 6.01728 2.39672 6.05724 2.39197 6.10256C2.39018 6.11976 2.35026 6.52899 2.56029 6.99237C2.71097 7.32481 3.0165 7.73412 3.63494 8.0036C3.54506 7.99991 3.44675 7.99122 3.34106 7.97535C3.29164 7.96793 3.24135 7.98298 3.20711 8.01542C3.17287 8.04785 3.15924 8.09335 3.1708 8.1366C3.17454 8.15062 3.26636 8.48406 3.58097 8.83246C3.83042 9.10872 4.26652 9.44068 4.97917 9.56862C4.50192 9.85468 3.44833 10.3528 2.11847 10.1767C2.03956 10.1663 1.96578 10.2126 1.95022 10.282C1.93761 10.3381 1.96725 10.3934 2.02008 10.4215C3.05394 11.0022 4.25033 11.3091 5.48024 11.3091C9.05209 11.3091 11.958 8.73205 11.958 5.56438C11.958 5.50825 11.957 5.45175 11.9552 5.39568C12.193 5.22595 12.8526 4.7352 13.0383 4.38922C13.0649 4.33972 13.0542 4.28078 13.0117 4.24103C12.9691 4.20128 12.9032 4.18893 12.8461 4.20992C12.8419 4.21146 12.553 4.31682 12.182 4.40019C12.4295 4.18562 12.6965 3.8849 12.7598 3.54852C12.7692 3.49875 12.7458 3.44858 12.6996 3.41914C12.6534 3.38968 12.5923 3.3861 12.5421 3.40982C12.5377 3.41191 12.0955 3.61972 11.4875 3.79955C11.406 3.82356 11.3289 3.84513 11.2537 3.86482C10.8121 3.47848 10.2103 3.25842 9.58823 3.25842C8.28132 3.25842 7.21808 4.20089 7.21808 5.3593Z" fill="#312829"/>
</svg>
