<svg width="188" height="162" viewBox="0 0 188 162" fill="none" xmlns="http://www.w3.org/2000/svg">
<path d="M183.996 131.624C170.38 102.78 162.114 73.6856 159.191 62.512C158.663 60.4925 157.769 58.5836 156.576 56.8736L156.562 50.1279C156.554 46.7767 154.927 43.6184 152.209 41.6787C150.698 40.6001 149.194 39.4769 147.737 38.3366C127.325 8.60029 114.92 1.02177 114.4 0.71322C114.253 0.625855 114.092 0.56374 113.924 0.53041C113.5 0.44355 111.243 0.203675 108.147 3.66948C101.868 9.99712 89.2803 36.853 88.2268 43.526C87.4698 48.321 80.0782 59.2749 77.1037 63.4447C77.0204 63.4679 76.9401 63.4901 76.8563 63.5139C69.5565 65.5667 60.3165 70.3632 58.2996 77.1231C57.2719 80.5672 58.1617 84.0269 60.9438 87.4129C61.0044 92.2094 61.8331 102.416 64.6106 113.371C64.1944 113.988 63.8005 114.575 63.4344 115.122C62.0563 117.181 60.1292 118.862 57.8597 119.983C55.4372 121.18 53.3536 122.572 51.6659 124.119C50.3731 125.304 48.3728 127.461 46.0559 129.959C45.1459 130.94 44.1743 131.987 43.1668 133.061C41.4064 133.051 36.5301 133.105 31.3614 133.883C22.3992 135.231 17.1947 138.062 15.8918 142.297C14.6652 146.282 14.7121 149.36 16.0317 151.443C16.0933 151.541 16.1589 151.629 16.2236 151.718C11.4342 153.335 6.29429 154.763 1.92352 155.766C0.716578 156.042 -0.0888957 157.14 0.00705411 158.374C0.103509 159.61 1.07109 160.57 2.30732 160.655C7.94816 161.051 16.7806 161.336 16.9922 161.336C20.9812 161.336 24.9187 160.329 28.4188 158.408C28.5269 158.349 28.641 158.286 28.7506 158.225C32.1472 159.436 35.6923 160.057 39.3046 160.057C39.3475 160.057 112.167 159.765 112.167 159.765C113.647 159.759 114.952 158.92 115.571 157.575C115.581 157.553 115.587 157.531 115.596 157.509C143.846 160.999 160.896 161.511 170.496 161.511C172.893 161.511 174.828 161.479 176.356 161.454C176.529 161.451 176.698 161.449 176.859 161.446C178.461 161.421 180.041 160.981 181.384 160.109C184.142 158.318 186.059 155.847 187.097 152.738C190.168 143.539 184.452 132.48 183.996 131.624ZM172.916 113.722C168.434 113.262 163.377 115.293 160.534 116.682C159.973 108.59 156.353 91.7135 156.181 90.9121C156.085 90.4682 155.795 90.0905 155.391 89.8829L148.132 86.1606C146.949 85.5546 146.169 84.387 146.074 83.0291C146.004 82.0292 146.373 81.0469 147.011 80.2733L149.081 77.7609C151.346 75.0097 152.025 71.3489 150.899 67.9675L150.221 65.9359C149.762 64.5597 149.647 63.0927 149.885 61.6615L150.982 55.0834L152.687 56.8736C154.399 58.6709 155.634 60.8854 156.26 63.278C158.55 72.0352 164.101 91.7216 172.916 113.722ZM62.1224 144.077C60.4827 143.258 58.1572 142.48 55.1883 141.755C58.1259 139.624 60.9281 137.434 63.4359 135.242L72.5143 133.397C73.5435 135.084 74.6287 136.621 75.764 137.99C78.3698 141.116 83.0158 146.285 84.9842 148.464C79.7615 148.048 67.5991 146.82 62.1224 144.077ZM70.4635 129.675C70.6231 129.994 70.7821 130.314 70.9448 130.624L68.6677 131.087C69.3631 130.624 69.958 130.149 70.4635 129.675ZM77.4406 135.23C75.671 132.945 74.0318 130.194 72.5517 127.037C72.9218 126.364 73.1319 125.782 73.2476 125.372C75.5155 123.347 86.9441 113.066 95.32 104.081C94.9226 104.903 94.6009 105.599 94.3782 106.157C93.7202 107.802 93.8399 109.576 94.7236 111.287C95.5958 112.975 97.2264 114.608 99.4176 116.082C96.8517 119.859 88.4611 131.153 77.4406 135.23ZM97.4158 109.897C96.9345 108.964 96.8608 108.109 97.1921 107.282C97.5739 106.326 98.3384 104.796 99.307 102.858C100.678 100.115 102.384 96.7029 103.986 92.9594C104.022 92.8821 104.169 92.5276 104.206 92.4291C104.755 91.1307 105.324 89.8794 105.874 88.6689C107.344 85.4333 108.676 82.4938 109.278 79.5239C110.617 81.2459 112.413 82.9882 114.779 84.2961C118.075 86.1181 121.814 86.7145 125.934 86.0939C124.748 88.9022 123.484 93.2624 123.484 99.1042C123.484 109.826 129.496 119.897 129.752 120.32C130.03 120.779 130.524 121.051 131.048 121.051C131.129 121.051 131.21 121.045 131.292 121.032C131.902 120.933 132.391 120.473 132.526 119.869C132.664 119.256 135.902 104.774 135.479 98.173C135.171 93.3931 132.855 87.6412 131.484 84.6026C137.192 82.4306 141.124 78.9194 143.171 74.1481C146.091 67.3408 144.301 59.9122 142.948 56.9353C141.16 53.0028 130.893 41.5964 118.357 39.2103C116.599 38.875 114.782 39.4219 113.501 40.6718C112.493 41.655 111.462 42.6938 110.371 43.7927C108.607 45.5708 106.737 47.4534 104.778 49.2825L104.749 47.6842C104.722 46.3389 104.937 45.0127 105.39 43.7396C109.718 31.4874 113.873 22.2499 116.367 19.2184C127.284 28.8664 135.618 38.879 137.115 40.7096L137.662 43.7906C137.978 45.5884 138.845 47.2014 140.166 48.4543L147.806 55.7137L146.898 61.1626C146.578 63.0811 146.732 65.0486 147.348 66.8933L148.025 68.9254C148.816 71.2954 148.331 73.9052 146.743 75.8338L144.595 78.4406C143.176 80.1642 142.686 82.4453 143.29 84.6198C143.814 86.5065 145.177 88.0498 146.92 88.9431L153.368 92.2493C154.162 96.0212 157.853 113.895 157.565 119.09C157.301 123.831 158.064 130.99 160.796 137.462L125.505 129.321C124.455 126.959 120.731 120.157 111.963 118.038C104.895 116.331 99.0485 113.059 97.4158 109.897ZM91.077 69.3395C82.1896 70.3142 79.2601 68.6709 78.3046 67.5872C77.94 67.1736 77.791 66.756 77.7345 66.4136C78.9349 66.0762 80.0443 65.7707 81.0791 65.4859C88.5243 63.4361 92.2613 62.4069 98.645 58.1523C103.795 54.7198 108.431 50.0491 112.521 45.9288C113.604 44.838 114.627 43.8078 115.618 42.8407C116.19 42.2827 116.998 42.0378 117.783 42.1873C129.364 44.387 138.781 55.092 140.19 58.1907C141.125 60.2455 142.983 66.9044 140.387 72.9548C138.589 77.1473 134.969 80.2101 129.63 82.0584C124.492 83.835 120.004 83.7042 116.289 81.6691C112.433 79.5567 110.344 75.9778 109.411 73.931C109.287 73.6598 108.723 72.3165 108.526 71.8484C108.498 71.7822 108.469 71.7186 108.437 71.6544C107.513 69.8021 106.161 68.2169 104.47 67.0681C102.144 65.4869 99.7469 64.9445 97.3395 65.4601C95.1872 65.9202 93.0925 67.2206 91.077 69.3395ZM129.034 86.5595C130.292 89.4501 132.2 94.4042 132.455 98.3684C132.718 102.453 131.381 110.206 130.439 115.016C128.738 111.28 126.514 105.225 126.514 99.1047C126.514 93.1876 127.901 88.9966 129.034 86.5595ZM91.22 43.9977C92.186 37.8806 104.423 11.6778 110.321 5.77937C110.342 5.75866 110.362 5.73695 110.382 5.71473C111.806 4.11287 112.797 3.67958 113.225 3.56192C115.441 5.07035 127.286 13.8558 145.37 40.2415C145.457 40.3683 145.563 40.4814 145.684 40.5763C147.233 41.7934 148.837 42.9943 150.449 44.1446C152.374 45.5182 153.526 47.7574 153.532 50.1339L153.539 53.3745L152.916 52.7205C152.08 51.8428 150.793 51.5828 149.66 52.1024C149.386 52.2282 149.145 52.4024 148.932 52.6054L142.252 46.2571C141.404 45.4531 140.849 44.4189 140.646 43.2634L140.03 39.7946C139.985 39.5456 139.879 39.3113 139.721 39.1133C139.626 38.9947 130.064 27.0903 117.311 16.0182C116.782 15.5587 116.007 15.5223 115.438 15.9293C113.721 17.156 109.76 22.2686 102.532 42.7276C101.958 44.3441 101.684 46.0323 101.719 47.7428L101.796 51.9438C100.232 53.2725 98.6202 54.5259 96.9638 55.6298C91.4406 59.3113 88.1475 60.3819 81.877 62.1206C84.9605 57.5473 90.4508 48.8664 91.22 43.9977ZM63.9702 86.8529C63.9702 86.4868 63.8379 86.1333 63.5975 85.8575C61.2533 83.1674 60.4478 80.5197 61.2033 77.9887C62.5552 73.4578 68.6344 69.5875 74.8423 67.3418C75.0201 68.0452 75.3584 68.7936 75.9513 69.4961C77.7294 71.6029 81.174 72.6619 86.2235 72.6619C86.9416 72.6619 87.7001 72.6352 88.4829 72.5922C88.1602 73.0624 87.8395 73.5497 87.5224 74.0648C85.4049 77.5008 83.7732 81.4131 82.6734 85.6929C82.0936 87.9503 80.6948 92.1923 77.843 95.2475C75.2984 97.9745 70.7084 104.44 66.9149 109.98C64.8979 101.079 63.9702 92.0095 63.9702 86.8529ZM18.5521 149.757C17.7941 148.477 17.878 146.144 18.788 143.186C20.405 137.932 32.8456 136.399 40.2444 136.132C39.3444 137.062 38.4339 137.989 37.5234 138.889C35.3802 138.656 34.0223 138.545 33.9596 138.54C33.1279 138.472 32.3947 139.092 32.3265 139.927C32.2588 140.761 32.8795 141.492 33.7137 141.559C33.7213 141.56 34.0536 141.587 34.6379 141.642C32.6189 143.495 30.6802 145.096 28.9834 146.176C26.6654 147.651 23.2582 149.168 19.4233 150.587C19.1803 150.469 18.8319 150.23 18.5521 149.757ZM16.4387 158.298C13.8925 158.229 10.252 158.101 6.1236 157.863C15.0414 155.583 25.2838 152.122 30.6095 148.733C35.8943 145.37 43.0511 137.653 48.2774 132.018C50.5489 129.568 52.5113 127.453 53.7132 126.351C55.1893 124.997 57.0366 123.769 59.202 122.698C61.9457 121.342 64.2798 119.305 65.9518 116.806C69.8186 111.028 76.7926 100.812 80.0565 97.3145C83.2011 93.9456 84.8105 89.5451 85.6064 86.4469C86.6305 82.4609 88.142 78.83 90.0999 75.654C92.6769 71.4742 95.3988 68.9734 97.9723 68.4225C99.558 68.0851 101.126 68.4593 102.766 69.5733C104.586 70.8101 105.9 72.7301 106.464 74.9804C106.507 75.1531 106.54 75.2904 106.55 75.3581C106.867 79.1547 105.128 82.9826 103.113 87.4155C102.55 88.6558 101.172 91.8302 101.154 91.8721C98.0733 98.4361 78.4001 116.747 70.873 123.427C70.5923 123.676 70.4175 123.993 70.3761 124.366C70.3579 124.487 69.8777 127.366 65.1721 129.587C65.0145 129.661 64.8706 129.763 64.7474 129.886C60.9695 133.663 56.0028 137.539 50.7574 141.188C50.6918 141.226 50.6307 141.269 50.5711 141.317C42.1376 147.168 33.0128 152.428 26.9594 155.75C23.746 157.515 20.1095 158.395 16.4387 158.298ZM39.4202 157.026C39.3818 157.026 39.3434 157.026 39.3046 157.026C36.9704 157.026 34.6677 156.736 32.4214 156.174C38.0602 152.977 45.1373 148.743 51.8553 144.11C55.8291 144.935 58.7945 145.821 60.6771 146.744C58.9909 148.85 56.4033 152.738 56.1902 156.958L39.4202 157.026ZM112.819 156.306C112.76 156.434 112.577 156.732 112.155 156.734L59.2247 156.946C59.4843 153.139 62.3365 149.436 63.6268 147.943C72.1542 150.804 86.5997 151.625 87.284 151.662C87.6218 151.683 87.9471 151.589 88.2223 151.4C90.471 149.861 94.3732 148.121 95.5473 149.003C95.7639 149.165 96.02 149.267 96.2886 149.297C98.2748 149.519 102.11 149.22 104.977 148.93C106.216 148.807 107.428 149.297 108.231 150.244L112.712 155.524C112.985 155.846 112.877 156.178 112.819 156.306ZM184.224 151.777C183.514 153.904 182.269 155.656 180.51 157.012C179.317 157.932 177.836 158.399 176.33 158.423C176.322 158.423 176.315 158.423 176.307 158.424C168.696 158.549 150.936 158.839 115.587 154.454C115.443 154.138 115.256 153.838 115.022 153.563L110.541 148.283C109.093 146.577 106.903 145.687 104.673 145.917C101.126 146.274 98.4182 146.412 96.9653 146.316C95.3918 145.413 93.1521 145.583 90.2978 146.824C89.606 147.125 88.9591 147.454 88.4 147.76C88.3213 147.659 82.9753 141.749 79.4797 137.685C91.0952 132.936 99.5009 121.432 102.038 117.629C104.658 118.991 107.79 120.147 111.251 120.983C120.049 123.109 122.854 130.794 122.967 131.116C123.137 131.609 123.549 131.98 124.058 132.096L162.53 140.972C162.63 141.147 162.723 141.327 162.827 141.499L166.867 148.233C167.349 149.036 168.457 149.231 169.189 148.572C169.734 148.082 169.811 147.251 169.434 146.623L165.426 139.94C161.58 133.531 160.41 125.433 160.559 120.07C163.561 118.419 170.115 115.613 174.288 117.097C176.437 122.315 178.764 127.637 181.273 132.951C181.284 132.975 181.297 132.999 181.309 133.022C183.268 136.661 186.399 145.262 184.224 151.777Z" fill="#EFF2F1"/>
</svg>
